<svg xmlns="http://www.w3.org/2000/svg" viewBox="0 0 500 500"><g id="freepik--background-complete--inject-303"><rect y="382.4" width="500" height="0.25" style="fill:#ebebeb"></rect><rect x="416.78" y="398.49" width="33.12" height="0.25" style="fill:#ebebeb"></rect><rect x="322.53" y="401.21" width="8.69" height="0.25" style="fill:#ebebeb"></rect><rect x="396.59" y="389.21" width="19.19" height="0.25" style="fill:#ebebeb"></rect><rect x="52.46" y="390.89" width="43.19" height="0.25" style="fill:#ebebeb"></rect><rect x="104.56" y="390.89" width="6.33" height="0.25" style="fill:#ebebeb"></rect><rect x="131.47" y="395.11" width="93.68" height="0.25" style="fill:#ebebeb"></rect><path d="M237,337.8H43.91a5.71,5.71,0,0,1-5.7-5.71V60.66A5.71,5.71,0,0,1,43.91,55H237a5.71,5.71,0,0,1,5.71,5.71V332.09A5.71,5.71,0,0,1,237,337.8ZM43.91,55.2a5.46,5.46,0,0,0-5.45,5.46V332.09a5.46,5.46,0,0,0,5.45,5.46H237a5.47,5.47,0,0,0,5.46-5.46V60.66A5.47,5.47,0,0,0,237,55.2Z" style="fill:#ebebeb"></path><path d="M453.31,337.8H260.21a5.72,5.72,0,0,1-5.71-5.71V60.66A5.72,5.72,0,0,1,260.21,55h193.1A5.71,5.71,0,0,1,459,60.66V332.09A5.71,5.71,0,0,1,453.31,337.8ZM260.21,55.2a5.47,5.47,0,0,0-5.46,5.46V332.09a5.47,5.47,0,0,0,5.46,5.46h193.1a5.47,5.47,0,0,0,5.46-5.46V60.66a5.47,5.47,0,0,0-5.46-5.46Z" style="fill:#ebebeb"></path><rect x="258.38" y="140.44" width="171.9" height="123.45" style="fill:#e0e0e0"></rect><rect x="256.38" y="140.45" width="171.91" height="123.45" style="fill:#ebebeb"></rect><rect x="287" y="119.82" width="110.66" height="161.91" transform="translate(543.11 -141.55) rotate(90)" style="fill:#fafafa"></rect><path d="M274.57,175.12a.44.44,0,0,1-.16,0,.51.51,0,0,1-.31-.64l4.12-11.74a.52.52,0,0,1,.48-.33.48.48,0,0,1,.46.34l3.8,11.74a.5.5,0,0,1-.32.63.49.49,0,0,1-.63-.32l-3.34-10.33L275,174.79A.48.48,0,0,1,274.57,175.12Z" style="fill:#e0e0e0"></path><path d="M280.91,170.25H277.4a.51.51,0,0,1-.5-.5.5.5,0,0,1,.5-.5h3.51a.5.5,0,0,1,.5.5A.51.51,0,0,1,280.91,170.25Z" style="fill:#e0e0e0"></path><path d="M287.63,174.79a2.75,2.75,0,0,1-2.11-1.31c-.81-1.06-1-2-.62-2.72.91-1.7,4.7-1.54,5.13-1.51a.49.49,0,0,1,.47.52.51.51,0,0,1-.53.48c-1.16-.07-3.71.09-4.18,1-.25.46.15,1.15.52,1.64.51.68,1,1,1.48.9,1.19-.2,2.43-2.68,2.92-4.19a.5.5,0,0,1,1,.24c-.15.91-.3,3.6,1,4a.49.49,0,0,1,.33.62.48.48,0,0,1-.62.33,2.79,2.79,0,0,1-1.71-2.55c-.64,1.16-1.56,2.36-2.69,2.55A1.84,1.84,0,0,1,287.63,174.79Z" style="fill:#e0e0e0"></path><path d="M275.5,196.48a.47.47,0,0,1-.34-.13A.51.51,0,0,1,275,196V182.75c-.62,0-1.16.1-1.55.15a.5.5,0,0,1-.13-1c.72-.1,7.07-.87,9,.85a1.73,1.73,0,0,1,.63,1.34c0,1.7-1.42,2.81-2.82,3.49,1.47.17,3.12.6,3.92,1.61a2.43,2.43,0,0,1,.33,2.32c-1.27,4.09-8.55,4.93-8.86,5Zm.5-13.79v12.72c1.66-.28,6.56-1.31,7.46-4.19a1.46,1.46,0,0,0-.17-1.4c-1-1.3-4.58-1.39-5.86-1.31a.5.5,0,0,1-.52-.44.49.49,0,0,1,.4-.55c1.3-.26,4.67-1.39,4.67-3.42a.77.77,0,0,0-.28-.59C280.76,182.7,278.15,182.59,276,182.69Z" style="fill:#e0e0e0"></path><path d="M290.54,197.1a5.5,5.5,0,0,1-2.48-.64.5.5,0,0,1-.22-.67.49.49,0,0,1,.67-.22c2,1,3.71.43,4.26-.65.46-.89,0-1.85-1.15-2.45a2.26,2.26,0,0,0-2.43,0,5.57,5.57,0,0,0-2,3.25s0,.09,0,.13v0h0c-.07.57-.21.59-.42.61a.55.55,0,0,1-.56-.43,2.11,2.11,0,0,1,0-.63c0-1.49,0-6.1-.05-9.07a.5.5,0,0,1,.5-.51h0a.49.49,0,0,1,.5.49c0,3.09.07,5.23.07,6.71a5.25,5.25,0,0,1,1.17-1.27,3.25,3.25,0,0,1,3.64-.22c1.92,1,2.18,2.63,1.58,3.8A3.41,3.41,0,0,1,290.54,197.1ZM286.72,196h0Z" style="fill:#e0e0e0"></path><path d="M278.57,217.08a5.87,5.87,0,0,1-4.28-2.44c-1.72-2.2-2.49-5.7-.08-8.19,1.61-1.66,3.17-2.45,4.63-2.34a3.48,3.48,0,0,1,2.47,1.34.51.51,0,0,1-.11.7.5.5,0,0,1-.7-.12,2.5,2.5,0,0,0-1.76-.92q-1.73-.12-3.81,2c-2,2.07-1.37,5,.15,6.88,1.21,1.54,3.15,2.66,4.78,1.71,3.35-2,3.7-2.83,3.72-2.86a.46.46,0,0,1,.55-.4.51.51,0,0,1,.42.59c0,.35-.55,1.4-4.19,3.53A3.51,3.51,0,0,1,278.57,217.08Z" style="fill:#e0e0e0"></path><path d="M289.68,217.29A3.31,3.31,0,0,1,286.2,214c-.16-1.52.17-2.57,1-3.11,1.57-1.05,4.22.35,4.51.51a.5.5,0,1,1-.48.88c-.66-.36-2.57-1.17-3.48-.56-.47.32-.66,1.05-.54,2.17a2.35,2.35,0,0,0,1.77,2.36,5.41,5.41,0,0,0,4-1.08.48.48,0,0,1,.48-.4.53.53,0,0,1,.51.48c0,.91-2.23,1.95-3.93,2.06Zm3.27-2Z" style="fill:#e0e0e0"></path><path d="M277.25,239.1a10.43,10.43,0,0,1-1.57-.11.49.49,0,0,1-.42-.49V226.18a.5.5,0,0,1,1,0v11.87c1.05.09,3.85.16,5.65-1.32a4.81,4.81,0,0,0,1.65-3.71A6.94,6.94,0,0,0,281,227.2a8.71,8.71,0,0,0-6.61-2,.51.51,0,0,1-.6-.38.5.5,0,0,1,.38-.6,9.73,9.73,0,0,1,7.47,2.19,7.92,7.92,0,0,1,2.89,6.63,5.79,5.79,0,0,1-2,4.45A8.47,8.47,0,0,1,277.25,239.1Z" style="fill:#e0e0e0"></path><path d="M291.15,239.16c-2.38,0-3.89-1.28-4.2-2.71a2.51,2.51,0,0,1,2-3,3.06,3.06,0,0,1,2.45.26,4.71,4.71,0,0,1,1.57,1.57v-9a.5.5,0,0,1,1,0v11.34a.5.5,0,0,1-.44.49.48.48,0,0,1-.54-.36s-.64-2.36-2.08-3.17a2.08,2.08,0,0,0-1.68-.17,1.53,1.53,0,0,0-1.28,1.8c.25,1.18,1.75,2.2,4.11,1.86a.5.5,0,0,1,.57.42.51.51,0,0,1-.43.57A7.43,7.43,0,0,1,291.15,239.16Z" style="fill:#e0e0e0"></path><path d="M308.86,242.24h0a.5.5,0,0,1-.46-.53c2.74-38.05,0-87,0-87.5a.5.5,0,0,1,.47-.53.51.51,0,0,1,.53.47c0,.49,2.74,49.52,0,87.63A.5.5,0,0,1,308.86,242.24Z" style="fill:#e0e0e0"></path><path d="M412.66,220.35H319.41a.5.5,0,0,1,0-1h93.25a.5.5,0,0,1,0,1Z" style="fill:#e0e0e0"></path><path d="M324.42,217.29a.52.52,0,0,1-.33-.12.51.51,0,0,1,0-.71c.68-.79,16.74-19.35,21.78-21.93,5.24-2.67,20.49,17.43,22.21,19.73a.51.51,0,0,1-.1.7.5.5,0,0,1-.7-.1c-6.31-8.43-17.59-21.15-21-19.43-4.86,2.48-21.31,21.49-21.47,21.69A.52.52,0,0,1,324.42,217.29Z" style="fill:#e0e0e0"></path><path d="M410.22,215.06a.52.52,0,0,1-.38-.17c-4.74-5.52-17.86-19.84-21.54-19.62s-14.93,11.64-18.94,16a.5.5,0,1,1-.74-.68c.6-.65,14.77-16.11,19.63-16.36s20.57,17.9,22.35,20a.49.49,0,0,1-.38.82Z" style="fill:#e0e0e0"></path><path d="M360.61,201.68a.51.51,0,0,1-.34-.14.49.49,0,0,1,0-.7c.16-.18,4.05-4.32,8.75-4.13,2.46.1,4.65,1.37,6.54,3.76a.5.5,0,0,1-.09.7.5.5,0,0,1-.7-.08,7.79,7.79,0,0,0-5.78-3.38c-4.26-.17-8,3.77-8,3.81A.52.52,0,0,1,360.61,201.68Z" style="fill:#e0e0e0"></path><path d="M360.61,197.1a.52.52,0,0,1-.45-.28l-2.47-5.12a.5.5,0,0,1,.24-.67.49.49,0,0,1,.66.24l2.47,5.11a.5.5,0,0,1-.23.67A.54.54,0,0,1,360.61,197.1Z" style="fill:#e0e0e0"></path><path d="M367.88,193.24h-.1a.5.5,0,0,1-.39-.59,41.59,41.59,0,0,0,0-6.24.5.5,0,0,1,.47-.53.52.52,0,0,1,.53.47,40.41,40.41,0,0,1,0,6.49A.51.51,0,0,1,367.88,193.24Z" style="fill:#e0e0e0"></path><path d="M375.15,193.24a.51.51,0,0,1-.31-.11.49.49,0,0,1-.09-.7l3.41-4.41a.5.5,0,1,1,.79.61L375.54,193A.5.5,0,0,1,375.15,193.24Z" style="fill:#e0e0e0"></path><path d="M410.22,170.25H380a.5.5,0,0,1-.44-.28.49.49,0,0,1,0-.52,10.54,10.54,0,0,1,8.21-4.14c.42-1.56,2.13-7.15,5.47-7.15,3,0,5.62,3.52,6.56,4.94a5.93,5.93,0,0,1,4.39-1.48c3.56,0,6.19,7.15,6.47,8a.46.46,0,0,1-.06.45A.48.48,0,0,1,410.22,170.25Zm-29.16-1H409.5c-.93-2.32-3.09-6.61-5.29-6.63-3,0-4,1.52-4,1.59a.52.52,0,0,1-.43.23.51.51,0,0,1-.42-.25c0-.05-2.94-5-6.06-5-2.5,0-4.16,4.88-4.59,6.76a.51.51,0,0,1-.52.39A9.9,9.9,0,0,0,381.06,169.25Z" style="fill:#e0e0e0"></path><path d="M351.72,181.58a.5.5,0,0,1-.45-.27,2.51,2.51,0,0,0-.3-.47.48.48,0,0,1,.06.24.5.5,0,0,1-.5.5h-29.8a.5.5,0,0,1-.5-.42,3,3,0,0,1,.71-2.37,3.71,3.71,0,0,1,3-.89,7.8,7.8,0,0,1,2.05-4.76,5.93,5.93,0,0,1,4.49-1.63,10.43,10.43,0,0,1,8.47,4.17,5.28,5.28,0,0,1,3.81-1.55c2.48-.14,3.48,2.12,3.71,3.61,1.18.2,4.6.94,5.68,3.12a.49.49,0,0,1-.22.67A.59.59,0,0,1,351.72,181.58Zm-30.51-1h29.32a.46.46,0,0,1,.3.11c-1.46-1.59-4.83-2-4.87-2a.52.52,0,0,1-.44-.47c0-.13-.26-3.19-2.7-3.09-2.66.13-3.44,1.63-3.45,1.65a.48.48,0,0,1-.44.27.53.53,0,0,1-.45-.26,9.2,9.2,0,0,0-8-4.27,5,5,0,0,0-3.77,1.33,7.29,7.29,0,0,0-1.79,4.6.5.5,0,0,1-.17.38.51.51,0,0,1-.39.12,3.16,3.16,0,0,0-2.7.55A1.82,1.82,0,0,0,321.21,180.58Z" style="fill:#e0e0e0"></path><path d="M348.15,243.56a.51.51,0,0,1-.32-.12.49.49,0,0,1-.06-.7l17.88-21.36a.5.5,0,1,1,.77.64l-17.88,21.36A.5.5,0,0,1,348.15,243.56Z" style="fill:#e0e0e0"></path><path d="M370.3,243.56a.5.5,0,0,1-.5-.45l-2.28-21.36a.5.5,0,0,1,.45-.55.5.5,0,0,1,.55.44L370.79,243a.5.5,0,0,1-.44.55Z" style="fill:#e0e0e0"></path><path d="M280.13,255.18H298a1.44,1.44,0,0,1,1.44,1.44v3.62a0,0,0,0,1,0,0H278.69a0,0,0,0,1,0,0v-3.62A1.44,1.44,0,0,1,280.13,255.18Z" style="fill:#e6e6e6"></path><rect x="277.4" y="257.33" width="23.34" height="4.77" style="fill:#e0e0e0"></rect><rect x="353.24" y="238" width="1.58" height="15.82" transform="translate(-9.76 14.68) rotate(-2.34)" style="fill:#ebebeb"></rect><polygon points="352.85 234.98 352.87 238.25 354.56 238.18 354.32 234.92 352.85 234.98" style="fill:#e6e6e6"></polygon><rect x="352.79" y="238" width="1.87" height="0.9" transform="translate(-9.44 14.64) rotate(-2.34)" style="fill:#e6e6e6"></rect><rect x="357.67" y="238.99" width="1.58" height="15.82" transform="translate(35.04 -44.4) rotate(7.45)" style="fill:#ebebeb"></rect><polygon points="359.16 235.93 358.62 239.15 360.3 239.37 360.61 236.12 359.16 235.93" style="fill:#e6e6e6"></polygon><rect x="358.5" y="239.05" width="1.87" height="0.9" transform="translate(34.08 -44.57) rotate(7.45)" style="fill:#e6e6e6"></rect><rect x="361.89" y="238" width="1.58" height="15.82" transform="translate(-9.71 14.96) rotate(-2.33)" style="fill:#e6e6e6"></rect><polygon points="361.5 234.98 361.52 238.25 363.22 238.18 362.97 234.92 361.5 234.98" style="fill:#f0f0f0"></polygon><rect x="361.44" y="238" width="1.87" height="0.9" transform="translate(-9.4 14.94) rotate(-2.33)" style="fill:#f0f0f0"></rect><rect x="355.31" y="237.99" width="1.58" height="15.82" transform="translate(-27.56 45.71) rotate(-7.07)" style="fill:#e6e6e6"></rect><polygon points="354.02 235.11 354.31 238.36 355.99 238.16 355.48 234.93 354.02 235.11" style="fill:#f0f0f0"></polygon><rect x="354.25" y="238.05" width="1.87" height="0.9" transform="translate(-26.66 45.54) rotate(-7.07)" style="fill:#f0f0f0"></rect><rect x="351.72" y="245.3" width="12.86" height="16.8" style="fill:#e0e0e0"></rect><rect x="354.02" y="245.3" width="10.55" height="16.8" style="fill:#ebebeb"></rect><path d="M247.92,259.71H430.74a0,0,0,0,1,0,0v6.36a1.26,1.26,0,0,1-1.26,1.26H249.18a1.26,1.26,0,0,1-1.26-1.26v-6.36A0,0,0,0,1,247.92,259.71Z" style="fill:#e0e0e0"></path><path d="M247.92,259.71H430.74a0,0,0,0,1,0,0v6.36a1.26,1.26,0,0,1-1.26,1.26H249.18a1.26,1.26,0,0,1-1.26-1.26v-6.36A0,0,0,0,1,247.92,259.71Z" style="fill:#e0e0e0;opacity:0.2"></path><path d="M247.92,259.71H420.74a0,0,0,0,1,0,0v6.36a1.26,1.26,0,0,1-1.26,1.26H249.18a1.26,1.26,0,0,1-1.26-1.26v-6.36a0,0,0,0,1,0,0Z" style="fill:#ebebeb"></path><polygon points="417.57 322.83 411.29 322.83 260.49 322.83 260.49 341.07 248.09 341.07 248.09 359.48 236.13 359.48 236.13 381.93 248.09 381.93 260.49 381.93 386.93 381.93 398.89 381.93 411.29 381.93 417.57 381.93 428.28 381.93 428.28 359.48 428.28 341.07 428.28 322.83 417.57 322.83" style="fill:#ebebeb"></polygon><polygon points="411.29 322.83 411.29 341.07 398.89 341.07 398.89 359.48 386.93 359.48 386.93 381.93 398.89 381.93 411.29 381.93 428.28 381.93 428.28 359.48 428.28 341.07 428.28 322.83 411.29 322.83" style="fill:#f5f5f5"></polygon><rect x="260.49" y="334.16" width="150.8" height="6.91" style="fill:#e0e0e0"></rect><rect x="248.09" y="352.38" width="150.8" height="7.1" style="fill:#e0e0e0"></rect><circle cx="342.8" cy="105.43" r="15.92" transform="translate(-14.25 139.21) rotate(-22.5)" style="fill:#e0e0e0"></circle><circle cx="342.8" cy="105.43" r="14.35" transform="translate(-14.25 139.21) rotate(-22.5)" style="fill:#fff"></circle><path d="M338.48,109.37a.48.48,0,0,1-.39-.19.49.49,0,0,1,.08-.7l4.13-3.29V97.05a.5.5,0,0,1,.5-.5.51.51,0,0,1,.5.5v8.38a.51.51,0,0,1-.19.39l-4.32,3.44A.45.45,0,0,1,338.48,109.37Z" style="fill:#e0e0e0"></path></g><g id="freepik--Shadow--inject-303"><ellipse id="freepik--path--inject-303" cx="250" cy="416.24" rx="193.89" ry="11.32" style="fill:#f5f5f5"></ellipse></g><g id="freepik--Plant--inject-303"><path d="M87.24,392.56S92,382.2,86.56,372s-7-12.62-3.54-14.72,5,8.18,5,8.18A23.05,23.05,0,0,0,88.58,351c-2.41-7.39-3.92-19.43-.63-20.72s.63,15,3.48,20.58a47.7,47.7,0,0,0,2.79-12.13c.39-5.93-.22-15.41,2.38-17.85s4.26-.74,1.7,12.36A137.07,137.07,0,0,0,95.77,357s5.64-17.19,9.42-17.69,3.78,5.07.54,9.89-9.48,13.48-10.51,17.93c0,0,6.19-12.93,11.76-9s-4.85,11.78-9.49,14.6-7.86,20.52-7.86,20.52Z" style="fill:#76A2B7"></path><path d="M87.24,392.56S92,382.2,86.56,372s-7-12.62-3.54-14.72,5,8.18,5,8.18A23.05,23.05,0,0,0,88.58,351c-2.41-7.39-3.92-19.43-.63-20.72s.63,15,3.48,20.58a47.7,47.7,0,0,0,2.79-12.13c.39-5.93-.22-15.41,2.38-17.85s4.26-.74,1.7,12.36A137.07,137.07,0,0,0,95.77,357s5.64-17.19,9.42-17.69,3.78,5.07.54,9.89-9.48,13.48-10.51,17.93c0,0,6.19-12.93,11.76-9s-4.85,11.78-9.49,14.6-7.86,20.52-7.86,20.52Z" style="isolation:isolate;opacity:0.2"></path><path d="M91,396.81s-4.63-10.43.92-20.57,7.16-12.51,3.72-14.66-5.14,8.1-5.14,8.1a23.11,23.11,0,0,1-.34-14.46c2.5-7.36,4.15-19.37.88-20.71s-.81,15-3.73,20.52a47.88,47.88,0,0,1-2.64-12.17c-.33-5.94.4-15.41-2.16-17.88s-4.26-.81-1.86,12.33a137.89,137.89,0,0,1,2.25,23.79s-5.43-17.27-9.21-17.83-3.84,5-.66,9.88,9.32,13.62,10.29,18.08c0,0-6-13-11.64-9.14s4.7,11.85,9.31,14.74,7.61,20.63,7.61,20.63Z" style="fill:#76A2B7"></path><polygon points="69.66 389.38 107.87 389.38 104.78 416.72 72.75 416.72 69.66 389.38" style="fill:#263238"></polygon></g><g id="freepik--height-meter--inject-303"><path d="M181,122.26h0a42.31,42.31,0,0,0-42.31,42.32V416.72h84.63V164.58A42.32,42.32,0,0,0,181,122.26Z" style="fill:#76A2B7"></path><path d="M181,122.26h0a42.31,42.31,0,0,0-42.31,42.32V416.72h84.63V164.58A42.32,42.32,0,0,0,181,122.26Z" style="fill:#fafafa;opacity:0.7000000000000001"></path><path d="M183.06,167.85a5.89,5.89,0,0,1,7.59-5.65,12.05,12.05,0,0,1-.13-1.81,12.51,12.51,0,0,1,14.79-12.28,10.92,10.92,0,0,1,20.25,5.52h.18a10.07,10.07,0,0,1,0,20.13h-37A5.89,5.89,0,0,1,183.06,167.85Z" style="fill:#76A2B7"></path><path d="M183.06,167.85a5.89,5.89,0,0,1,7.59-5.65,12.05,12.05,0,0,1-.13-1.81,12.51,12.51,0,0,1,14.79-12.28,10.92,10.92,0,0,1,20.25,5.52h.18a10.07,10.07,0,0,1,0,20.13h-37A5.89,5.89,0,0,1,183.06,167.85Z" style="fill:#fafafa;opacity:0.5"></path><path d="M142.18,230.66a3.26,3.26,0,0,1,3.26-3.25,3.17,3.17,0,0,1,.93.14,8.26,8.26,0,0,1-.07-1,6.9,6.9,0,0,1,6.89-6.9,7.49,7.49,0,0,1,1.27.12,6,6,0,0,1,11.17,3h.1a5.56,5.56,0,0,1,0,11.11H145.35A3.25,3.25,0,0,1,142.18,230.66Z" style="fill:#76A2B7"></path><path d="M142.18,230.66a3.26,3.26,0,0,1,3.26-3.25,3.17,3.17,0,0,1,.93.14,8.26,8.26,0,0,1-.07-1,6.9,6.9,0,0,1,6.89-6.9,7.49,7.49,0,0,1,1.27.12,6,6,0,0,1,11.17,3h.1a5.56,5.56,0,0,1,0,11.11H145.35A3.25,3.25,0,0,1,142.18,230.66Z" style="fill:#fafafa;opacity:0.5"></path><path d="M151.18,128.3a4.43,4.43,0,0,1,4.43-4.43,4.16,4.16,0,0,1,1.27.19,8.8,8.8,0,0,1-.1-1.36,9.38,9.38,0,0,1,9.38-9.38,9,9,0,0,1,1.73.16,8.2,8.2,0,0,1,15.2,4.14h.13a7.56,7.56,0,1,1,0,15.12H155.48A4.42,4.42,0,0,1,151.18,128.3Z" style="fill:#76A2B7"></path><path d="M151.18,128.3a4.43,4.43,0,0,1,4.43-4.43,4.16,4.16,0,0,1,1.27.19,8.8,8.8,0,0,1-.1-1.36,9.38,9.38,0,0,1,9.38-9.38,9,9,0,0,1,1.73.16,8.2,8.2,0,0,1,15.2,4.14h.13a7.56,7.56,0,1,1,0,15.12H155.48A4.42,4.42,0,0,1,151.18,128.3Z" style="fill:#fafafa;opacity:0.5"></path><path d="M116.9,278.5a3.24,3.24,0,0,1,3.25-3.25,3.48,3.48,0,0,1,.93.13,8.09,8.09,0,0,1-.07-1,6.9,6.9,0,0,1,6.89-6.9,7.49,7.49,0,0,1,1.27.12,6,6,0,0,1,11.17,3.05h.1a5.56,5.56,0,0,1,0,11.11H120.06A3.24,3.24,0,0,1,116.9,278.5Z" style="fill:#76A2B7"></path><path d="M116.9,278.5a3.24,3.24,0,0,1,3.25-3.25,3.48,3.48,0,0,1,.93.13,8.09,8.09,0,0,1-.07-1,6.9,6.9,0,0,1,6.89-6.9,7.49,7.49,0,0,1,1.27.12,6,6,0,0,1,11.17,3.05h.1a5.56,5.56,0,0,1,0,11.11H120.06A3.24,3.24,0,0,1,116.9,278.5Z" style="fill:#fafafa;opacity:0.5"></path><path d="M108.16,166.7a5.2,5.2,0,0,1,5.2-5.19,5.32,5.32,0,0,1,1.49.22,10.44,10.44,0,0,1-.12-1.59,11,11,0,0,1,11-11,11.27,11.27,0,0,1,2,.19,9.61,9.61,0,0,1,17.82,4.86h.16a8.86,8.86,0,0,1,0,17.72H113.21A5.2,5.2,0,0,1,108.16,166.7Z" style="fill:#76A2B7"></path><path d="M108.16,166.7a5.2,5.2,0,0,1,5.2-5.19,5.32,5.32,0,0,1,1.49.22,10.44,10.44,0,0,1-.12-1.59,11,11,0,0,1,11-11,11.27,11.27,0,0,1,2,.19,9.61,9.61,0,0,1,17.82,4.86h.16a8.86,8.86,0,0,1,0,17.72H113.21A5.2,5.2,0,0,1,108.16,166.7Z" style="fill:#fafafa;opacity:0.5"></path><polygon points="155.99 202.98 165.72 416.72 125.95 416.72 136.32 202.98 155.99 202.98" style="fill:#263238"></polygon><polygon points="155.99 202.98 165.72 416.72 125.95 416.72 136.32 202.98 155.99 202.98" style="fill:#fafafa;opacity:0.8"></polygon><polygon points="131.38 416.29 138.5 282.56 140.5 316.37 146.16 223.5 153.32 306.51 153.32 248.94 160.3 416.72 131.38 416.29" style="fill:#fafafa;opacity:0.30000000000000004"></polygon><path d="M109.58,416.72c-2.86-4.69,1.87-8.52,4.49-5.9,0,0-3.18-6,3.94-9.33s10.82,2.36,10.82,5c0,0,1.58-6.43,9.49-5s7.61,10.27,7.61,10.27,2.66-6.67,11.12-4.2c0,0-.53-7.14,5.8-7.1s7.12,4.79,7.12,4.79,2.37-3.08,6.33.57,1.29,6.71,1.29,6.71,5.72-.7,5.38,4.19Z" style="fill:#263238"></path><path d="M109.58,416.72c-2.86-4.69,1.87-8.52,4.49-5.9,0,0-3.18-6,3.94-9.33s10.82,2.36,10.82,5c0,0,1.58-6.43,9.49-5s7.61,10.27,7.61,10.27,2.66-6.67,11.12-4.2c0,0-.53-7.14,5.8-7.1s7.12,4.79,7.12,4.79,2.37-3.08,6.33.57,1.29,6.71,1.29,6.71,5.72-.7,5.38,4.19Z" style="fill:#fafafa;opacity:0.6000000000000001"></path><path d="M118.61,416.72s-2.18-4,2.17-7.12,9.1,1.28,9.1,1.28.79-4.33,5.74-3.38,4.91,6.35,4.91,6.35,5.18-2.8,9.53,1.24c0,0,.59-3.85,4.15-4.85s6.18,2.42,6.18,2.42a5.55,5.55,0,0,1,5-5.53c5.05-.66,6.63,4.67,5.84,6.16,0,0,3.37.23,3.37,3.43Z" style="fill:#fafafa;opacity:0.4"></path><path d="M152.71,184.08s7.71,9.75,7.52,17.07-3,9.57-3,9.57l.4-4.73s-1.65,8.76-8.94,14l-2.63-4.82s-.89,5.34,0,8.3c0,0-9.33-5.38-10.16-12.78l-1,3.12s-4.16-7-3.36-13.68,7.13-15.23,7.13-15.23Z" style="fill:#76A2B7"></path><path d="M152.71,184.08s7.71,9.75,7.52,17.07-3,9.57-3,9.57l.4-4.73s-1.65,8.76-8.94,14l-2.63-4.82s-.89,5.34,0,8.3c0,0-9.33-5.38-10.16-12.78l-1,3.12s-4.16-7-3.36-13.68,7.13-15.23,7.13-15.23Z" style="fill:#fafafa;opacity:0.2"></path><path d="M153.44,188.3a38.72,38.72,0,0,1,3.18,9.49,10.32,10.32,0,0,1-1.59,7.29l.05-5.18a24,24,0,0,1-4.68,10.95l-3.69-5.77s-2.77,4.84-2.64,8a11.82,11.82,0,0,1-3.46-10.55s-1.81,1.84-1.94,3.29c0,0-6.47-5.53,0-17.53Z" style="fill:#fafafa;opacity:0.2"></path><path d="M135.5,181.18h20.69a0,0,0,0,1,0,0v4.51a1.29,1.29,0,0,1-1.29,1.29h-18.1a1.29,1.29,0,0,1-1.29-1.29v-4.51A0,0,0,0,1,135.5,181.18Z" style="fill:#76A2B7"></path><path d="M135.5,181.18h20.69a0,0,0,0,1,0,0v4.51a1.29,1.29,0,0,1-1.29,1.29h-18.1a1.29,1.29,0,0,1-1.29-1.29v-4.51A0,0,0,0,1,135.5,181.18Z" style="fill:#fafafa;opacity:0.5"></path><path d="M156.37,181.18H135.31s-7.39-39.56-4.22-56a42.88,42.88,0,0,1,7.6-16.9,55.16,55.16,0,0,1,4.84-5.79c.49-.51,1-1,1.39-1.39a1.32,1.32,0,0,1,1.84,0c.43.42.89.88,1.38,1.39a55.16,55.16,0,0,1,4.84,5.79,42.89,42.89,0,0,1,7.61,16.9C163.75,141.62,156.37,181.18,156.37,181.18Z" style="fill:#76A2B7"></path><circle cx="145.84" cy="134.36" r="10.15" style="fill:#fafafa;opacity:0.6000000000000001"></circle><circle cx="145.84" cy="134.36" r="7.41" style="fill:#263238"></circle><path d="M159.14,163.42s12.27,3.32,15,12.22c1.92,6.19.31,14-.85,18.16a1.05,1.05,0,0,1-2,.13c-1.88-4.34-6.43-12.18-15-12.75a86,86,0,0,1,.7-8.61C157.81,166.15,159.14,163.42,159.14,163.42Z" style="fill:#263238"></path><path d="M132.53,163.42s-12.26,3.32-15,12.22c-1.93,6.19-.31,14,.85,18.16a1.05,1.05,0,0,0,2,.13c1.87-4.34,6.42-12.18,15-12.75a86,86,0,0,0-.7-8.61C133.86,166.15,132.53,163.42,132.53,163.42Z" style="fill:#263238"></path><path d="M145.84,163.42h0a2.64,2.64,0,0,1,2.64,2.64v26.16a2.34,2.34,0,0,1-2.34,2.34h-.59a2.34,2.34,0,0,1-2.34-2.34V166.06a2.64,2.64,0,0,1,2.64-2.64Z" style="fill:#263238"></path><path d="M153,108.27H138.69a55.16,55.16,0,0,1,4.84-5.79c.5-.51,1-1,1.4-1.39a1.3,1.3,0,0,1,1.83,0c.43.42.9.88,1.38,1.39A55.16,55.16,0,0,1,153,108.27Z" style="fill:#263238"></path><g style="opacity:0.2"><rect x="194.49" y="180.18" width="28.28" height="2"></rect><rect x="208.5" y="186.16" width="14.27" height="2"></rect><rect x="208.5" y="192.13" width="14.27" height="2"></rect><rect x="208.5" y="198.11" width="14.27" height="2"></rect><rect x="194.49" y="204.09" width="28.28" height="2"></rect><rect x="208.5" y="210.06" width="14.27" height="2"></rect><rect x="208.5" y="216.04" width="14.27" height="2"></rect><rect x="208.5" y="222.02" width="14.27" height="2"></rect><rect x="194.49" y="227.99" width="28.28" height="2"></rect><rect x="208.5" y="233.97" width="14.27" height="2"></rect><rect x="208.5" y="239.95" width="14.27" height="2"></rect><rect x="208.5" y="245.92" width="14.27" height="2"></rect><rect x="194.49" y="251.9" width="28.28" height="2"></rect><rect x="208.5" y="257.88" width="14.27" height="2"></rect><rect x="208.5" y="263.85" width="14.27" height="2"></rect><rect x="208.5" y="269.83" width="14.27" height="2"></rect><rect x="194.49" y="275.81" width="28.28" height="2"></rect><rect x="208.5" y="281.78" width="14.27" height="2"></rect><rect x="208.5" y="287.76" width="14.27" height="2"></rect><rect x="208.5" y="293.74" width="14.27" height="2"></rect><rect x="194.49" y="299.71" width="28.28" height="2"></rect><rect x="208.5" y="305.69" width="14.27" height="2"></rect><rect x="208.5" y="311.67" width="14.27" height="2"></rect><rect x="208.5" y="317.64" width="14.27" height="2"></rect><rect x="194.49" y="323.62" width="28.28" height="2"></rect><rect x="208.5" y="329.6" width="14.27" height="2"></rect><rect x="208.5" y="335.57" width="14.27" height="2"></rect><rect x="208.5" y="341.55" width="14.27" height="2"></rect><rect x="194.49" y="347.53" width="28.28" height="2"></rect><rect x="208.5" y="353.5" width="14.27" height="2"></rect><rect x="208.5" y="359.48" width="14.27" height="2"></rect><rect x="208.5" y="365.46" width="14.27" height="2"></rect><rect x="194.49" y="371.43" width="28.28" height="2"></rect><rect x="208.5" y="377.41" width="14.27" height="2"></rect><rect x="208.5" y="383.39" width="14.27" height="2"></rect><rect x="208.5" y="389.36" width="14.27" height="2"></rect><rect x="194.49" y="395.34" width="28.28" height="2"></rect><rect x="208.5" y="401.32" width="14.27" height="2"></rect><rect x="208.5" y="407.29" width="14.27" height="2"></rect><rect x="208.5" y="413.27" width="14.27" height="2"></rect></g></g><g id="freepik--speech-bubble--inject-303"><path d="M308.36,131.54H279.63a8.84,8.84,0,0,0-8.84,8.84v25a8.84,8.84,0,0,0,8.84,8.85H286l3,7.89,3-7.89h16.36a8.85,8.85,0,0,0,8.85-8.85v-25A8.84,8.84,0,0,0,308.36,131.54Z" style="fill:#76A2B7"></path><path d="M308.36,131.54H279.63a8.84,8.84,0,0,0-8.84,8.84v25a8.84,8.84,0,0,0,8.84,8.85H286l3,7.89,3-7.89h16.36a8.85,8.85,0,0,0,8.85-8.85v-25A8.84,8.84,0,0,0,308.36,131.54Z" style="fill:#fff;opacity:0.7000000000000001"></path><circle cx="294" cy="152.77" r="14.26" style="fill:#76A2B7"></circle><path d="M292.5,159.14a1.33,1.33,0,0,1-1-.46l-5.59-6.59a1.31,1.31,0,0,1,2-1.7l4.59,5.42,7.59-8.94a1.31,1.31,0,0,1,2,1.69l-8.59,10.12A1.31,1.31,0,0,1,292.5,159.14Z" style="fill:#fff"></path></g><g id="freepik--character-1--inject-303"><g id="freepik--group--inject-303"><path d="M217.71,316.12c3,6.39,6,12.82,7.74,19.74A116.09,116.09,0,0,1,227,356.69l-4.42.56c-1.79-6.29-3.17-13.18-5-19.42-2.24-6-5.54-12-8.07-17.84l8.13-3.87Z" style="fill:#dc897c"></path><path d="M225,328.11l-4.26,3-6.55,4.63L211.63,327l-1.23-4.18,3.25-12.93C220.67,313.57,225,328.11,225,328.11Z" style="fill:#76A2B7"></path><path d="M220.76,331.13l-6.55,4.63L211.63,327l2.68-7.55S219.69,324.23,220.76,331.13Z" style="isolation:isolate;opacity:0.2"></path><path d="M212.87,413.05l-5.72-.22s-.21-18.67-1.68-36c-.56-6.55-1.3-12.9-2.28-18-.24-1.27-.5-2.45-.77-3.55-4.27-17.06,16.63-11.68,16.63-11.68S224.1,374,212.87,413.05Z" style="fill:#e4897b"></path><path d="M205.47,376.84c-.56-6.55-1.3-12.9-2.28-18a11.54,11.54,0,0,1,8.23-.06S211.59,371.91,205.47,376.84Z" style="isolation:isolate;opacity:0.2"></path><path d="M184.91,341.08c-1.42,7.23,4.74,30.23,5.57,69.7h5.69S202,388.55,205.52,366c0,0,13.63-9.74,12.52-16.47S184.91,341.08,184.91,341.08Z" style="fill:#e4897b"></path><path d="M220.18,343.4l-35.44,1.8s-.51-3.21-.7-6.78c0-.8-.06-1.62-.06-2.43,0-3,.08-5.9.21-8.59,0-.91.08-1.8.14-2.66l.09-1.45.06-.91c0-.07,0-.14,0-.21.16-2.21.33-4.19.49-5.85.36-3.59.67-5.76.67-5.76s5.19-2.77,16.4-2.68a37.58,37.58,0,0,1,9.82,1.2,6.17,6.17,0,0,1,4.5,6.21,57,57,0,0,0,.26,7.33c.26,2.81.67,5.77,1.14,8.64A120.87,120.87,0,0,0,220.18,343.4Z" style="fill:#76A2B7"></path><path d="M227.54,356.24s1.13,4.52,1.12,5.19-3.69,6.36-3.69,6.36l-6.42-4.6,2-4.21s0-4.25,2.79-5.32S227.54,356.24,227.54,356.24Z" style="fill:#e4897b"></path><path d="M187.58,308.93c-2,3.6,16.15,8.62,16.15,8.62s9.53-3.26,8.66-7.89S191.51,301.78,187.58,308.93Z" style="fill:#76A2B7"></path><path d="M187.58,308.93c-2,3.6,16.15,8.62,16.15,8.62s9.53-3.26,8.66-7.89S191.51,301.78,187.58,308.93Z" style="fill:#fff;opacity:0.5"></path><path d="M204.27,304.37a5,5,0,0,0,.78,3.83,4,4,0,0,0,.44.57,7.38,7.38,0,0,0,.8.77h0c1.17,4-2.44,7.22-2.44,7.22-7.68-2.74-9.83-6.58-9.83-6.58a9.44,9.44,0,0,0,1-7.66,12.77,12.77,0,0,0-1.72-3.67l8.52,1.54,3.88.71A8.25,8.25,0,0,0,204.27,304.37Z" style="fill:#e4897b"></path><path d="M204.27,304.37a5,5,0,0,0,.78,3.83,4,4,0,0,0,.44.57c-4.66,0-8.48-3.78-10.48-6.25a12.77,12.77,0,0,0-1.72-3.67l8.52,1.54,3.88.71A8.25,8.25,0,0,0,204.27,304.37Z" style="isolation:isolate;opacity:0.2"></path><path d="M184.14,275c1.2-7,11.83-9,14.65-8.66s1,1.83,1,1.83,7-.69,9.36,1-.56,2.67-.56,2.67,3.92,1.52,4.88,4.56-3.1,4.43-3.1,4.43L196,300.45s-1.92,2.08-4.33,1.49c-3.8-.92-6.09-5.58-6.09-5.58s-.63,1.68-1.75.9-2-8.54-2-8.54-.58,1.37-1.63.07-.86-6,0-9.12A8.61,8.61,0,0,1,184.14,275Z" style="fill:#263238"></path><path d="M205.62,270.87s11.66,5.48,3.13,16.8C199.11,300.45,205.62,270.87,205.62,270.87Z" style="fill:#263238"></path><path d="M185.59,290c2.43,7.3,8.72,14.47,15.18,14,11.84-.84,15.71-4.14,14.82-12.86-.76-7.86-6.49-19.13-16.41-19S182.22,279.82,185.59,290Z" style="fill:#e4897b"></path><path d="M208,275.54A21.29,21.29,0,0,1,197.2,279s-4.34,1.88-2.06,6.73-2.93,9.14-1.44,15.95c0,0-7.26.94-12.11-13.58-3.54-10.57,4.75-17.13,14.41-19.39C204.08,266.83,211.24,271.18,208,275.54Z" style="fill:#263238"></path><path d="M203.13,287.77c.28.94,1,1.56,1.62,1.37s.87-1.1.6-2-1-1.55-1.62-1.37S202.85,286.84,203.13,287.77Z" style="fill:#263238"></path><path d="M210.51,285.18c.26.89,1,1.49,1.54,1.3s.84-1,.58-1.94-1-1.47-1.55-1.3S210.24,284.28,210.51,285.18Z" style="fill:#263238"></path><path d="M204.43,282.27a.5.5,0,0,0,.08-.26.45.45,0,0,0-.49-.39,4.31,4.31,0,0,0-3.4,2.12.43.43,0,0,0,.19.59h0a.46.46,0,0,0,.59-.19h0a3.44,3.44,0,0,1,2.75-1.63A.51.51,0,0,0,204.43,282.27Z" style="fill:#263238"></path><path d="M211.8,280.49a.5.5,0,0,0,.2-.18.44.44,0,0,0-.24-.58,4.29,4.29,0,0,0-4,.24.43.43,0,0,0-.11.61h0a.45.45,0,0,0,.61.11h0a3.45,3.45,0,0,1,3.2-.12A.48.48,0,0,0,211.8,280.49Z" style="fill:#263238"></path><path d="M208.9,287l1.28,4.06a5.26,5.26,0,0,0,2.58-1.75A12.43,12.43,0,0,1,208.9,287Z" style="fill:#de5753"></path><path d="M209.18,294.7a4,4,0,0,1-3.39-1.86.37.37,0,0,1,.09-.52.36.36,0,0,1,.52.08,3.44,3.44,0,0,0,4.44,1.18.38.38,0,0,1,.36.66A4.74,4.74,0,0,1,209.18,294.7Z" style="fill:#263238"></path><path d="M206,273.24s4.94,1.83,4,3.47-5.25.24-5.25.24.35,3.27-2.29,3-3.1-1.15-3.1-1.15-1.63,5.66-4.49,2.21S206,273.24,206,273.24Z" style="fill:#263238"></path><path d="M194.91,292.39c-.81-1.57-5.35-4.19-7-.23s3.68,6.18,6.29,6S196.19,294.88,194.91,292.39Z" style="fill:#e4897b"></path><path d="M184.74,345.2c-1.3,15.3,1.27,36.73,1.27,36.73h17.46l1-7.65,1,7.65h14.72s3-24.44,0-38.53Z" style="fill:#263238"></path><path d="M213.76,407.89h-7.22c-.19,0-.36.22-.41.53l-.94,6.9c-.1.72.24,1.4.69,1.39,1.88-.06,4.6-.24,7-.24,2.77,0,5.16.25,8.4.25,2,0,2.51-3.22,1.69-3.52-3.74-1.32-4.79-1.47-8-4.7A1.71,1.71,0,0,0,213.76,407.89Z" style="fill:#263238"></path><path d="M196.75,407.89h-7.22c-.19,0-.36.22-.41.53l-.94,6.9c-.1.72.24,1.4.69,1.39,1.88-.06,4.6-.24,7-.24,2.77,0,5.16.25,8.4.25,2,0,2.51-3.22,1.69-3.52-3.74-1.32-4.79-1.47-8-4.7A1.67,1.67,0,0,0,196.75,407.89Z" style="fill:#263238"></path><path d="M184,338.42c0-.8-.06-1.62-.06-2.43,0-3,.08-5.9.21-8.59,0-.91.08-1.8.14-2.66l.09-1.45.06-.91a14.86,14.86,0,0,1,6.72.36S192.42,333.2,184,338.42Z" style="isolation:isolate;opacity:0.2"></path><path d="M189.41,318.49c-1.1,4.69-2.49,9.88-3.66,14.58a39.38,39.38,0,0,0-1.27,9.27c-.25,4.91-.48,10.29-.88,15.19l-4.45.28a115.58,115.58,0,0,1-2.34-20.76c.36-7.12,2.09-14,3.9-20.83l8.7,2.27Z" style="fill:#dc897c"></path><path d="M185.65,310.56c-5.33,2.48-9.42,16.19-9.42,16.19l12,5.67,3.6-11.73C192.71,317.79,185.65,310.56,185.65,310.56Z" style="fill:#76A2B7"></path><path d="M178.64,356.24s-1.13,4.52-1.12,5.19,3.69,6.36,3.69,6.36l6.42-4.6-2-4.21s0-4.25-2.79-5.32S178.64,356.24,178.64,356.24Z" style="fill:#e4897b"></path><path d="M207.49,317.34c.09.39-.28.8-.81.92s-1-.11-1.12-.51.28-.8.81-.91A.88.88,0,0,1,207.49,317.34Z" style="isolation:isolate;opacity:0.2"></path><path d="M209.43,325.89a.51.51,0,0,1-.39-.18c-1.94-2.32-3-7.84-3-8.07a.51.51,0,0,1,.41-.59.51.51,0,0,1,.58.41c0,.05,1,5.49,2.79,7.61a.51.51,0,0,1-.06.71A.54.54,0,0,1,209.43,325.89Z" style="fill:#76A2B7"></path><path d="M199.24,317.3c-.08.4.28.81.82.92a.89.89,0,0,0,1.12-.5c.08-.4-.29-.81-.82-.92A.9.9,0,0,0,199.24,317.3Z" style="isolation:isolate;opacity:0.2"></path><path d="M199.49,325.89a.45.45,0,0,1-.2,0,.49.49,0,0,1-.26-.65c1.26-3,.71-7.54.7-7.59a.5.5,0,0,1,.43-.56.49.49,0,0,1,.56.43c0,.2.6,4.88-.77,8.11A.5.5,0,0,1,199.49,325.89Z" style="fill:#76A2B7"></path><path d="M209.43,325.89a.51.51,0,0,1-.39-.18c-1.94-2.32-3-7.84-3-8.07a.51.51,0,0,1,.41-.59.51.51,0,0,1,.58.41c0,.05,1,5.49,2.79,7.61a.51.51,0,0,1-.06.71A.54.54,0,0,1,209.43,325.89Z" style="fill:#fff;opacity:0.5"></path><path d="M199.49,325.89a.45.45,0,0,1-.2,0,.49.49,0,0,1-.26-.65c1.26-3,.71-7.54.7-7.59a.5.5,0,0,1,.43-.56.49.49,0,0,1,.56.43c0,.2.6,4.88-.77,8.11A.5.5,0,0,1,199.49,325.89Z" style="fill:#fff;opacity:0.5"></path></g></g><g id="freepik--character-2--inject-303"><path d="M251.86,217.8c.32.66.22,1.36-.21,1.57s-1-.16-1.35-.82-.22-1.36.2-1.57S251.54,217.14,251.86,217.8Z" style="fill:#263238"></path><path d="M252.14,219.13a26.14,26.14,0,0,1-.42,7.14c1.69.52,3.43-.93,3.43-.93Z" style="fill:#de5753"></path><path d="M252.5,213a.47.47,0,0,0,.16-.27.42.42,0,0,0-.34-.5,4.28,4.28,0,0,0-3.77,1.08.43.43,0,1,0,.63.59h0a3.37,3.37,0,0,1,3-.82A.42.42,0,0,0,252.5,213Z" style="fill:#263238"></path><path d="M273.11,205.81c3.4,8.32,5.82,13,3.74,19.12-3.12,9.2-14.87,10.32-20.69,3.19-5.24-6.42-9.92-18.94-3.57-26A12.25,12.25,0,0,1,273.11,205.81Z" style="fill:#e4897b"></path><path d="M253.92,215.54a52.33,52.33,0,0,0,3.58,9.66s-1.71,1-1.9,1.91,0,2,1.79,2.31c0,0,.63,3.56,2.07,4.82a3.18,3.18,0,0,0,3.27.4s1,1.16,3.5.82,3.08-2,3.08-2a2.34,2.34,0,0,0,2.42-2.19s-3.68,1.82-8.07-1.56c-5.36-4.14-8.71-14.42-8.71-14.42Z" style="fill:#263238"></path><path d="M274,209.2c3.72,7.57,11.61,20.61,19.56,21.5,0,0,3.28,8-9,17.35-13.45,10.24-11.51-1.78-11.51-1.78,6-7.34,1.67-12.64-3.5-16.79Z" style="fill:#e4897b"></path><path d="M278.51,219.48c-1.66,3.92-15.71,9-20-1.21,0,0-8.73-4.32-12.39-10.08s-1.51-10.65,3.32-12.5c4.26-1.63,5.61.36,5.61.36s17.94-10.59,19.52-1.23C286.84,197,280.58,214.6,278.51,219.48Z" style="fill:#263238"></path><path d="M261.58,215a10.16,10.16,0,0,1,.37,6.51c-.82,2.82-3.26,2.52-4.74.3-1.33-2-2.52-5.88-.88-8S260.54,212.56,261.58,215Z" style="fill:#e4897b"></path><path d="M252.5,213s-5.08.48-7.34-3,1-5.17,1-5.17l5.44-9.69s-.32-2.11,3.1-4.35,7.64.21,7.64.21-.4-1.88,3.95-3.5,6.72,3.35,6.72,3.35,2-1.62,4.89.51a5.83,5.83,0,0,1,2.4,5.24s3.53.34,3.88,4.87-2.37,5.62-2.37,5.62a6.3,6.3,0,0,1,1.64,4.79,3.55,3.55,0,0,1-2.61,3.61s1.17,5.69-5.78,6.54-9.89-13.92-9.89-13.92l-8.86-.58Z" style="fill:#263238"></path><path d="M305.89,244c-10.52,7.27-21.08,14.24-32.67,19.84a23.44,23.44,0,0,1-5,1.73c-4.37.59-8.82.7-13.07.92-10.72.39-21.39.53-32.12.12l-.52-7.24c14.08-2.71,29.14-4.4,43.23-6.78,7.85-4.37,23.35-15.06,31.88-20.67L305.89,244Z" style="fill:#dc897c"></path><path d="M224.67,259.14H218l2.26,10.21s5.09-.54,7.32-4.32Z" style="fill:#e4897b"></path><polygon points="208.66 259.73 212.37 268.25 220.24 269.35 217.98 259.14 208.66 259.73" style="fill:#e4897b"></polygon><path d="M293.89,228.18c.2-2.08.38-4.44-1.95-4.18-2.56.3-17.76,5.24-21.54,8.32,2.32,1.79,1.29,5.63,1.29,5.63Z" style="fill:#263238"></path><path d="M305.94,225.19s12.18,6.45,22.14,67.35L282,307.31c-2.38-6.31-8-39-24.46-67.05a138,138,0,0,1,14.87-6.71,194.32,194.32,0,0,1,19.6-6.28A99.82,99.82,0,0,1,305.94,225.19Z" style="fill:#76A2B7"></path><path d="M328.08,292.54,282,307.32c-1.38-3.69-3.84-16.35-9-31.83-1.71-5.22-3.74-10.77-6.11-16.41a161.06,161.06,0,0,0-9.39-18.83,140.29,140.29,0,0,1,14.87-6.71A197.43,197.43,0,0,1,292,227.27a98.38,98.38,0,0,1,14-2.08s2.29,1.21,5.72,7.59A106.14,106.14,0,0,1,319,251.46,318.09,318.09,0,0,1,328.08,292.54Z" style="fill:#fafafa;opacity:0.6000000000000001"></path><path d="M263.91,408.46a.18.18,0,0,0,.15-.16.17.17,0,0,0-.09-.19c-.12-.07-3-1.69-4.3-1.32a.93.93,0,0,0-.61.45.72.72,0,0,0,0,.84c.34.47,1.34.61,2.38.61A14.56,14.56,0,0,0,263.91,408.46Zm-.62-.28c-1.51.21-3.56.2-3.94-.33-.05-.06-.1-.18,0-.42a.61.61,0,0,1,.38-.27,1.4,1.4,0,0,1,.37,0A8.57,8.57,0,0,1,263.29,408.18Z" style="fill:#76A2B7"></path><path d="M264,408.43a.23.23,0,0,0,.08-.17c0-.1-.23-2.28-1.26-3.13a1.41,1.41,0,0,0-1.07-.33c-.53.06-.68.32-.71.54-.15.92,1.79,2.67,2.77,3.11l.07,0A.28.28,0,0,0,264,408.43Zm-1.43-3a4.43,4.43,0,0,1,1.07,2.5c-1-.6-2.31-2-2.22-2.53,0,0,0-.18.37-.22h.12A1,1,0,0,1,262.56,405.43Z" style="fill:#76A2B7"></path><polygon points="273.69 407.89 266.15 410.89 258.47 393.73 266.01 390.74 273.69 407.89" style="fill:#e4897b"></polygon><path d="M264.74,407.33h8.85a.71.71,0,0,1,.69.56l1.6,7.21a1.18,1.18,0,0,1-1.16,1.44c-3.2-.06-7.81-.24-11.83-.24-4.69,0-8.75.25-14.25.25-3.33,0-4.26-3.36-2.86-3.67,6.34-1.38,11.52-1.53,17-4.91A3.77,3.77,0,0,1,264.74,407.33Z" style="fill:#263238"></path><path d="M328.08,292.53l-9.14,46c-2.59,1.54-6.57,2.53-11.31,3.13-9.29,1.18-21.48.9-32,.39-11.8-.56-21.45-1.43-22.39-.85-2.2,1.38,18.16,57.39,18.16,57.39l-12.49.28s-27.85-47.78-30.46-63.65c-1-5.86-1.78-13.16,9.37-18.75,9.82-4.93,44.58-5.82,44.58-5.82l-1.83-8.2Z" style="fill:#76A2B7"></path><path d="M307.63,341.68c-9.29,1.18-21.48.9-32,.39.35-17.29,10.66-32.86,10.66-32.86l12.6-1.89Z" style="opacity:0.2"></path><polygon points="405.06 393.59 405.56 401.69 386.87 403.65 386.37 395.55 405.06 393.59" style="fill:#e4897b"></polygon><path d="M405.92,402a.21.21,0,0,0-.21-.07.18.18,0,0,0-.13.17c0,.14-.23,3.39.68,4.45a.93.93,0,0,0,.67.35.74.74,0,0,0,.77-.35c.27-.5,0-1.47-.49-2.41A14,14,0,0,0,405.92,402Zm0,.69c.84,1.26,1.73,3.11,1.42,3.68,0,.07-.13.17-.4.15a.58.58,0,0,1-.41-.22,2,2,0,0,1-.2-.32A8.69,8.69,0,0,1,405.94,402.71Z" style="fill:#76A2B7"></path><path d="M405.86,402a.19.19,0,0,0-.19,0c-.08,0-1.95,1.2-2.27,2.49a1.43,1.43,0,0,0,.17,1.11c.28.45.59.47.79.41.89-.27,1.63-2.78,1.6-3.85a.24.24,0,0,0,0-.08A.15.15,0,0,0,405.86,402Zm-2.08,2.58a4.46,4.46,0,0,1,1.78-2.05c-.1,1.16-.77,2.95-1.31,3.11,0,0-.17.05-.35-.25l-.06-.1A1.07,1.07,0,0,1,403.78,404.55Z" style="fill:#76A2B7"></path><path d="M404.55,401.77l-3.85-8a.7.7,0,0,1,.2-.86l5.79-4.58a1.18,1.18,0,0,1,1.81.43c1.34,2.9,3.18,7.14,4.92,10.75,2,4.23,4,7.77,6.43,12.73,1.45,3-1.18,5.29-2.06,4.17-4-5.11-6.39-9.71-11.82-13.18A3.68,3.68,0,0,1,404.55,401.77Z" style="fill:#263238"></path><path d="M328.2,292s7.67,33.82-9.27,46.6c0,0,3.48,46.09,10.24,50.92,8.22,5.87,64.74,4.12,64.74,4.12l.72,14.68s-59.79,10.61-78.59,5.41c-22-6.09-35.46-111.21-35.46-111.21Z" style="fill:#76A2B7"></path><path d="M308.61,314.1l9.25-1.8a101.55,101.55,0,0,1,0,12l-4.53,3.15-3.81-1.66S309.29,317.41,308.61,314.1Z" style="opacity:0.2"></path><polygon points="283.54 302.81 284.32 306.62 280.89 307.31 280.1 303.53 283.54 302.81"></polygon><polygon points="299.36 299.46 300.21 303.42 286.03 306.27 285.2 302.45 299.36 299.46"></polygon><polygon points="317.02 295.74 317.86 299.87 302.01 303.06 301.18 299.08 317.02 295.74"></polygon><polygon points="329.47 297.53 319.71 299.5 319.7 299.5 318.84 295.35 328.54 293.3 329.47 297.53"></polygon><path d="M273,275.49c-1.71-5.22-3.74-10.77-6.11-16.41,1.27-2.23,3.22-3.46,6-2.68C272.94,256.4,277.2,266.1,273,275.49Z" style="opacity:0.2"></path><path d="M268.74,246c1,12.89-.13,26-5,38.13C258.57,296,249.44,305.45,239.06,313l-4.84-5.4a163.48,163.48,0,0,0,10-13.84,60.93,60.93,0,0,0,7.07-14.31c2.66-8.77,3.14-18.9,3-28.23,0-1-.08-3-.12-4L268.74,246Z" style="fill:#dc897c"></path><path d="M272.53,248.09c5.57,10.84-4.07,27.21-4.07,27.21l-17.07-5.23s.87-15,3.36-24.25C257.82,234.42,268.28,239.84,272.53,248.09Z" style="fill:#76A2B7"></path><path d="M272.53,248.09c5.57,10.84-4.07,27.21-4.07,27.21l-17.07-5.23s.87-15,3.36-24.25C257.82,234.42,268.28,239.84,272.53,248.09Z" style="fill:#fafafa;opacity:0.6000000000000001"></path><polygon points="250.87 267.83 271.41 271.94 269.66 276.24 250.23 270.96 250.87 267.83" style="fill:#263238"></polygon><path d="M234.73,307.2l-8,8,8,5.84s6.41-4.77,4.66-11.13Z" style="fill:#e4897b"></path><polygon points="225.65 319.69 231.27 325.77 234.67 321 226.68 315.15 225.65 319.69" style="fill:#e4897b"></polygon></g></svg>
