<svg xmlns="http://www.w3.org/2000/svg" viewBox="0 0 500 500"><g id="freepik--Floor--inject-156"><ellipse id="freepik--floor--inject-156" cx="250" cy="362.88" rx="224.27" ry="117.53" style="fill:#f0f0f0"></ellipse></g><g id="freepik--Shadow--inject-156"><ellipse id="freepik--shadow--inject-156" cx="250" cy="435.31" rx="57" ry="27.85" style="fill:#e0e0e0"></ellipse></g><g id="freepik--Plants--inject-156"><g id="freepik--plants--inject-156"><path d="M93.8,305.73,103,300.4s5.49-22.8,3.3-43.32c-3.08-28.84-22.06-39.7-29.28-37.21s-9.31,10.88,2.63,28.06C86.72,258.07,95.38,279.18,93.8,305.73Z" style="fill:#1C48AC"></path><g style="opacity:0.15"><path d="M93.8,305.73,103,300.4s5.49-22.8,3.3-43.32c-3.08-28.84-22.06-39.7-29.28-37.21s-9.31,10.88,2.63,28.06C86.72,258.07,95.38,279.18,93.8,305.73Z"></path></g><path d="M97.62,294.53h-.09a.65.65,0,0,1-.51-.75c5.06-26.61-4.24-56.5-15.75-68.94a.65.65,0,0,1,0-.91.63.63,0,0,1,.9,0c11.72,12.67,21.2,43,16.07,70A.66.66,0,0,1,97.62,294.53Z" style="fill:#fff"></path><path d="M69.65,319.68c-1.46.74-5.33-2.58-6.41-3.38A13.57,13.57,0,0,1,59,310.91a12.71,12.71,0,0,1-.74-7.66,30.89,30.89,0,0,1,1.17-4l1.32-3.87a10,10,0,0,0,.78-3.93c-.21-2.7-2.5-4.7-4.58-6.43-2.31-1.92-4.68-4.41-4.5-7.64a11.37,11.37,0,0,1,3.18-6.62c1.65-1.88,3.57-3.52,5.07-5.51a8,8,0,0,0,1.88-4.94,8.22,8.22,0,0,0-.94-3.19c-1-2.16-2.44-4.17-3.11-6.47s-.42-5.1,1.42-6.63c1.52-1.25,3.68-1.33,5.63-1.1A12.76,12.76,0,0,1,70.66,245c5,3.11,7.61,9.33,12.94,11.8,2.06.95,4.35,1.26,6.51,1.95s4.33,1.91,5.25,4c1.79,4.09-2.16,8.82-1,13.13,1,3.81,4.62,5.43,6.5,8.91a8,8,0,0,1,.71,5,23.6,23.6,0,0,1-2.49,8.19,73.54,73.54,0,0,1-4.93,7.57Z" style="fill:#1C48AC"></path><path d="M83.76,312.32h0a.64.64,0,0,1-.59-.7c2.34-25.3-8.2-53.9-16.48-62.47a.64.64,0,1,1,.92-.89C76,257,86.79,286.08,84.43,311.74A.64.64,0,0,1,83.76,312.32Z" style="fill:#fff"></path><path d="M81.24,281.12a.58.58,0,0,1-.18,0,85,85,0,0,0-18.26-3.89.64.64,0,0,1-.57-.7.62.62,0,0,1,.69-.58c.1,0,10.4,1,18.58,4a.64.64,0,0,1,.38.82A.65.65,0,0,1,81.24,281.12Z" style="fill:#fff"></path></g></g><g id="freepik--Character--inject-156"><g id="freepik--character--inject-156"><path d="M214.68,317c-4.2-.26-9.47-.21-14.16,2.83-7.64,4.95-14.72,11.73-16.35,14.12s-3.67,1.14-5.57-3.4a14.26,14.26,0,0,1,2.62-14.87c3.87-4.16,7.7-7.36,9.17-10.12s8.24-3.7,12.33-3.17c0,0,1.4-.17,2.79-.28,6.22-.49,15.58-3.21,15.58-3.21l4.22,18.23S218.89,317.3,214.68,317Z" style="fill:#ffa8a7"></path><path d="M186.9,350.71c-1.58,1.05-6,2-8.72.63-5.64-2.78-8.18-13-7.37-18.9,1-7.19,4.34-11.25,5.05-15.58s-.47-10.26.76-14.14a11,11,0,0,1,6.24-6.68,6.68,6.68,0,0,1,5.85.26l1.72.92Z" style="fill:#263238"></path><path d="M173.61,333.73c.21-7.89,7.25-14.14,6.09-21.69s1.9-18.07,12.19-14.37a35.65,35.65,0,0,1,5.58,2.48,7.4,7.4,0,0,0,2.46,1.08,11.65,11.65,0,0,0,3.23-.05,3.85,3.85,0,0,1,1.47-.08,1.07,1.07,0,0,1,.88,1l-2.7.27a1.12,1.12,0,0,0-.62.2c-.46.39,0,1.12,0,1.72.06.87-.73,1.52-1.45,2L198,308.3a13.19,13.19,0,0,0-2.56,1.88c-.24.29-.6,1.16-.07,1.38s2.13-.71,2.66-.91a1.85,1.85,0,0,1,1-.17c.58.1.92.69,1.19,1.21a10.52,10.52,0,0,0,3.18,3.93,12.59,12.59,0,0,0,3.64,1.47.6.6,0,0,1,.25.13.36.36,0,0,1,.09.36,1.29,1.29,0,0,1-.73.77,63.71,63.71,0,0,1-5.91,2.94c-1.63.72-3.86,1.77-4.87,3.32a13.21,13.21,0,0,0-1.55,3.42,34.28,34.28,0,0,0-1,6.05c-.34,3.06-.71,6.12-1.16,9.16a17.23,17.23,0,0,1-1.12,4.55c-1.87,4.22-7,4.94-10.72,2.61a11.53,11.53,0,0,1-4.33-4.49C173.83,342.07,173.5,337.52,173.61,333.73Z" style="fill:#455a64"></path><path d="M193.57,335.24a.65.65,0,0,1-.2.17c-.29.18-.49,0-.69-.16a13.08,13.08,0,0,0-1.59-1.3,17,17,0,0,0-3.27-1.79,18.43,18.43,0,0,0-4.89-1.31l-.51-.05a.79.79,0,0,1-.73-.82.78.78,0,0,1,.81-.72,16,16,0,0,1,3.37.6,19,19,0,0,1,6.58,3.18c.52.39,1.26.88,1.3,1.61A.92.92,0,0,1,193.57,335.24Z" style="fill:#fafafa"></path><path d="M194.2,331c-.41.48-1-.23-1.27-.51a12.89,12.89,0,0,0-1.54-1.22,15.69,15.69,0,0,0-3.18-1.64,17,17,0,0,0-4.34-1.1l-.18,0a.79.79,0,0,1-.72-.82.77.77,0,0,1,.83-.71,15.88,15.88,0,0,1,3.35.65A17.51,17.51,0,0,1,193.5,329a2,2,0,0,1,.9,1.29,1,1,0,0,1-.12.67A.36.36,0,0,1,194.2,331Z" style="fill:#fafafa"></path><path d="M195.14,327a.66.66,0,0,1-.29.17c-.33.1-.51-.25-.7-.46s-.45-.45-.68-.66a13.42,13.42,0,0,0-1.46-1.15,16.38,16.38,0,0,0-3-1.6,17.32,17.32,0,0,0-3.86-1.15l-.07,0a.77.77,0,0,1-.66-.87.78.78,0,0,1,.88-.65,18.33,18.33,0,0,1,3.4.9,17.1,17.1,0,0,1,6.12,3.68,2.28,2.28,0,0,1,.68.86.76.76,0,0,1,0,.47,1,1,0,0,1-.21.33Z" style="fill:#fafafa"></path><path d="M189.23,315a.7.7,0,0,1,.33-.1c.34,0,.43.37.56.62s.32.55.5.81a12.46,12.46,0,0,0,1.13,1.47,17.16,17.16,0,0,0,2.52,2.3,17.81,17.81,0,0,0,3.46,2.07l.06,0a.75.75,0,0,1,.42,1,.76.76,0,0,1-1,.42,17.79,17.79,0,0,1-3.08-1.71,17.09,17.09,0,0,1-5-5.07,2.42,2.42,0,0,1-.45-1,.73.73,0,0,1,.1-.46,1,1,0,0,1,.28-.26Z" style="fill:#fafafa"></path><path d="M173.59,335.16a23.18,23.18,0,0,0,2.29,10.75,11.53,11.53,0,0,0,4.33,4.49c3.7,2.33,8.85,1.61,10.72-2.61a17.23,17.23,0,0,0,1.12-4.55c.19-1.3.37-2.61.53-3.92C186.54,332.12,176,334,173.59,335.16Z" style="fill:#fafafa"></path><path d="M312.49,351.85c-1.25,3.71-2.93,8.49-1.32,13.43,2.61,8,7,16,8.74,18s.15,3.56-4.38,4.18a13.25,13.25,0,0,1-12.71-5.91c-2.8-4.46-4.75-8.67-6.88-10.65s-1.92-5.36-.46-8.9,1.62-22.55,1.62-22.55l18.83,2S313.73,348.15,312.49,351.85Z" style="fill:#ffa8a7"></path><path d="M293.11,370.29a8.08,8.08,0,0,0-.33,2.85c.17,1.22,2.21,3.57,3.58,4.79a10.73,10.73,0,0,1,3.49,6.73A18.94,18.94,0,0,0,306,395.47a27.16,27.16,0,0,0,15,5.87c6.79.63,8.37-3,8.37-3s1.33-3.49-.12-4.5S293.11,370.29,293.11,370.29Z" style="fill:#263238"></path><path d="M296.12,354.11a36.14,36.14,0,0,1-2.32,9.37c-.69,1.83-1.61,4.76-.69,6.81,1.17,3.17,5,5.16,6.62,9.49s3.63,11.9,11.64,15.92,15.17,3.12,17.41,1.14,1.43-4.65-3.19-9.08c-4.9-4.7-9.92-16.07-9.92-16.07-1.25-3.32-2.54-6.6-2.75-10.68l2.56-4.51c-.08-1.4-12.46-4-14-2.43l-.54,6L300,354Z" style="fill:#455a64"></path><path d="M306.44,392.17a11.18,11.18,0,0,1,8.82-7.46c7.29-1.5,10.58,1.67,12.15,3.62,1.86,2.32,4.22,6.74,1.5,8.72-2.94,2.14-6.8,2.47-13.33.75S306.44,392.17,306.44,392.17Z" style="fill:#fafafa"></path><path d="M303.17,370a.75.75,0,0,0,.66-.15c1-.8,6.7-3.3,10.84-.81.38-.45.15-1.09-.62-1.9-4.6-1.72-10,.61-11.21,1.58a.71.71,0,0,0-.08,1A.81.81,0,0,0,303.17,370Z" style="fill:#fafafa"></path><path d="M316.31,373.08a2.28,2.28,0,0,0-.84-1.91C311,369.83,306,372,304.84,373a.71.71,0,0,0-.08,1,.81.81,0,0,0,.41.25.75.75,0,0,0,.66-.15C306.81,373.3,312.21,370.94,316.31,373.08Z" style="fill:#fafafa"></path><path d="M313.56,365.34a1.34,1.34,0,0,0-.39-2c-4.8-2.64-11,0-12.33,1.07a.7.7,0,0,0-.08,1,.81.81,0,0,0,.41.25.78.78,0,0,0,.66-.14C302.91,364.66,309.4,361.85,313.56,365.34Z" style="fill:#fafafa"></path><path d="M321.34,382.3a4.17,4.17,0,0,0-1.48-2.44c-4.55-1.59-9.82.69-11,1.65a.71.71,0,0,0-.08,1,.81.81,0,0,0,.41.25.75.75,0,0,0,.66-.15C310.89,381.79,317.17,379.06,321.34,382.3Z" style="fill:#fafafa"></path><path d="M307.17,378.51a.75.75,0,0,0,.66-.15c1-.8,6.57-3.23,10.7-.88a2.57,2.57,0,0,0-1.06-2c-4.46-1.34-9.47.85-10.63,1.78a.71.71,0,0,0-.08,1A.81.81,0,0,0,307.17,378.51Z" style="fill:#fafafa"></path><path d="M218.62,299.39l29.9-8.12s-16.4-40.66-21.83-59.65c-4.39-15.33-3.27-31.24-2.58-37.2,2.3-19.7,59.55-3.09,59.55-3.09l4.33.8c11.41,24.73,31.12,55.43,43.12,80,3.7,7.57,3.32,10,0,23.23C326.34,314,322,323.67,315.41,343c-4.46.84-14.91.38-18.32-2.84-.48-18.75-3.76-39.41,7.74-57.12-11.92-12.82-23.87-28-35.78-42.4,2.28,10.48,9.5,44.91,9.33,59.86-.11,9.39-3.32,16.27-13.49,17.09-14.14,1.13-45.17,0-45.17,0C216.66,315.63,215.83,304,218.62,299.39Z" style="fill:#455a64"></path><path d="M248.52,291.27s1.54,7.69,5.7,12.08a19.4,19.4,0,0,1-6.38-5.81c-2.57-3.84-14.75.32-24.27.51Z" style="opacity:0.2"></path><path d="M269.07,240.67,267.35,231a50.56,50.56,0,0,0,10.82-14.71s-2.75,8.62-7.78,14.93l.74,7,21.48,31Z" style="opacity:0.2"></path><path d="M296.63,308.92a106.71,106.71,0,0,1,4.61-13.42,31.18,31.18,0,0,1,7.26-9.88,17.8,17.8,0,0,1-3.67-2.57C299.53,291.21,297.38,300,296.63,308.92Z" style="opacity:0.2"></path><path d="M374.21,69.39a2.35,2.35,0,0,0-2.64.12,13.77,13.77,0,0,0-2.29,1.73l-4.22,3.65a2.75,2.75,0,0,1-1.38.78,3.08,3.08,0,0,0-1.39-2.39c-.78-.54-2-.34-2.61-1a2.5,2.5,0,0,1-.45-1c-.9-2.54-3.75-3.16-6.16-2.82,1.46-4.25,2-5.86,3.09-9.64.48-1.75.43-3.71-.9-4.3-2-.9-3.56,1.41-4.4,3.52-1.62,4.08-2.75,6.39-4.58,11.09-.51,1.3-1.44,3.1-2,4.37-1.27,2.73-3.72,5-4.07,8a10.17,10.17,0,0,0,.51,4c.24.84.43,1.55.63,2.21.79,2.7.18,4.41-1.42,8.65s-10.13,23.67-10.13,23.67-30.27-11.32-40.09-15.28a24.91,24.91,0,0,0-19.62.41l20.63,25.71s33.83,9.17,41,11.67c7,2.43,10.56,1,15.25-12,2.17-6,3.36-10.41,5.7-18.21,3.14-10.41,2.5-10,5-16.82.38-1.06,3.49-4.77,4.11-5.7a44.11,44.11,0,0,0,2.86-5.12c2.25-4.56,6.57-7.75,9.29-12C374.46,71.77,375.17,70.23,374.21,69.39Z" style="fill:#ffa8a7"></path><path d="M271.11,104.24a27.14,27.14,0,0,1,14.53-1.34c5.12,1.19,44.12,17.15,44.12,17.15s5.77,13,15.27,16c0,0-1.33,5.48-5.43,7.34s-12-1.45-23.43-4.31S285,131,285,131Z" style="fill:#1C48AC"></path><path d="M271.11,104.24a27.14,27.14,0,0,1,14.53-1.34c5.12,1.19,44.12,17.15,44.12,17.15s5.77,13,15.27,16c0,0-1.33,5.48-5.43,7.34s-12-1.45-23.43-4.31S285,131,285,131Z" style="opacity:0.30000000000000004"></path><path d="M350.5,77.68l-2.3,1.71c1.72.71,2.39,2.35,3.7,3.56s3.55,4.17,3.13,6.66a5,5,0,0,0,1-2.77c0-.39-.12-1.09.14-1.43s.58-.22.91-.27A4.12,4.12,0,0,0,360,82.77a10.26,10.26,0,0,0,.89-3.79,10.47,10.47,0,0,1-2,2.9c-.65.72-1.82,2-2.93,1.6a1.86,1.86,0,0,1-1.22-1.33,4.72,4.72,0,0,1,.6-2.26l.67-1.65A6.88,6.88,0,0,1,353.81,80c-.93.41-3.46.18-2.39-1.37a3.73,3.73,0,0,1,.88-.8,8.53,8.53,0,0,0,2.34-2.13A3.49,3.49,0,0,0,355,74c0-.55-.36-1.08-.38-1.59a4.22,4.22,0,0,1-1.06,2.78,12.32,12.32,0,0,1-2.27,2Z" style="fill:#f28f8f"></path><path d="M352.48,70.21a1.81,1.81,0,0,1,1.72,1.67,1.16,1.16,0,0,0-1.11-.64c-.48,0-.85.44-1.22.71a8.42,8.42,0,0,1-3.48,1.68,17.06,17.06,0,0,0-2.36.5,5.5,5.5,0,0,0-1.94,1.2,5.36,5.36,0,0,1,.46-.73,5.09,5.09,0,0,1,.62-.69,5.71,5.71,0,0,1,1.51-1.06c1.2-.58,2.58-.72,3.71-1.48C351.06,70.92,351.67,70.22,352.48,70.21Z" style="fill:#f28f8f"></path><path d="M329.76,120.05l4.59-10.54A22.61,22.61,0,0,0,349,124.45a124.3,124.3,0,0,1-4.72,13.66S331.5,134.12,329.76,120.05Z" style="fill:#37474f"></path><path d="M264.31,99.62c4.6,3.19,7.61,3.48,12.72,5.7s13.87,3.48,20.78,21.23,10.91,53.86,7.8,69.24c0,0-8.84-34.5-19.85-37.72A178.45,178.45,0,0,0,266,153.45Z" style="fill:#455a64"></path><path d="M261.78,107.29c-1.47-11.88-5.52-29.92-33-26.33s-20.44,18.79-14.75,22.71,31.23,5.67,35.64,12.78S261.78,107.29,261.78,107.29Z" style="fill:#1C48AC"></path><path d="M261.78,107.29c-1.47-11.88-5.52-29.92-33-26.33s-20.44,18.79-14.75,22.71,31.23,5.67,35.64,12.78S261.78,107.29,261.78,107.29Z" style="opacity:0.4"></path><path d="M206,208.47s14.27-19.19,33.76-22.14,56.15-3.89,65.86,9.46c0,0-.44-78.93-25.65-85.64,0,0-32.39-1.42-43.3,16.77S207.05,181.78,206,208.47Z" style="fill:#1C48AC"></path><path d="M206,208.47s14.27-19.19,33.76-22.14,56.15-3.89,65.86,9.46c0,0-.44-78.93-25.65-85.64,0,0-32.39-1.42-43.3,16.77S207.05,181.78,206,208.47Z" style="opacity:0.4"></path><path d="M222.73,133l1.5,14.61,1.07,29.45c-1.3,7.89-3,15.22-2.58,29,18.11,10.11,48.52,6.71,68.43-7.12,0,0-.83-58.17-3.74-72.13S279.5,108.38,269.78,108c-10.25-.41-23.5.11-23.5.11l-11.42,2.18S222.85,128.15,222.73,133Z" style="fill:#ebebeb"></path><path d="M264.31,99.62c3.27,1.95,15.07,8.28,18.33,11.55a59.77,59.77,0,0,0-10.87-2.74c-5.29-.71-6.5-.33-6.5-.33Z" style="fill:#1C48AC"></path><path d="M251.19,130.83c-4.07,20.4-22,39.58-31.78,50.9C212.7,189.47,209,198.8,206,208.4c-1.46-1.56-3.56-2.44-5-4.14a20,20,0,0,1-3.62-6.42c-1.51-4.35-1.76-9-1.74-13.62a17,17,0,0,1,.72-5.78c.63-1.76-1.41-6.91-.18-8.32,0,0,8.47-3.33,11.85-6,6.57-5.27,8.5-9.79,9.74-20.39.77-6.63,1.38-13,4.36-19,2.54-5.08,4.85-9.78,9.71-12.8,8.33-5.18,16.68,2.23,19.06,10.72C251.38,124.52,251.09,128.9,251.19,130.83Z" style="fill:#455a64"></path><g id="freepik--Skateboard--inject-156"><path d="M268.8,171.85h0c6.79,10.48,2.91,23.59-8.67,29.28L175,243c-11.58,5.69-26.47,1.8-33.26-8.68h0c-6.79-10.48-2.91-23.59,8.67-29.28l85.12-41.83C247.12,157.49,262,161.37,268.8,171.85Z" style="fill:#1C48AC"></path><path d="M269.4,174.24h0c6.79,10.48,2.9,23.59-8.67,29.28l-85.12,41.83c-11.58,5.69-26.47,1.81-33.26-8.67h0c-6.79-10.48-2.91-23.59,8.67-29.28l85.12-41.84C247.72,159.87,262.61,163.76,269.4,174.24Z" style="fill:#1C48AC"></path><path d="M269.4,174.24h0c6.79,10.48,2.9,23.59-8.67,29.28l-85.12,41.83c-11.58,5.69-26.47,1.81-33.26-8.67h0c-6.79-10.48-2.91-23.59,8.67-29.28l85.12-41.84C247.72,159.87,262.61,163.76,269.4,174.24Z" style="opacity:0.4"></path><g style="opacity:0.5"><path d="M163.26,239.05l0,0,.05,0Z" style="fill:#1C48AC"></path><path d="M195.65,225.39l0,0h0l-.06.11v0a.49.49,0,0,0,0,.24.5.5,0,0,0,0,.12l0,0,0,.06a.34.34,0,0,0,.09.08l.05,0,.09,0a.26.26,0,0,0,.15,0,.35.35,0,0,0,.11,0,.56.56,0,0,0,.15-.1l.14-.14.05-.06a.46.46,0,0,0,.08-.13v0h0l0-.11h0a.38.38,0,0,0,0-.1h0v-.1s0,0,0-.08h0l-.07-.06h0l-.09,0h-.15l-.06,0a.11.11,0,0,0,0-.07c-.13-.2-.61.08-.48.29C195.62,225.38,195.64,225.38,195.65,225.39Z" style="fill:#1C48AC"></path><path d="M164.17,210.59l.09-.06h0Z" style="fill:#1C48AC"></path><path d="M162.75,238.89a.46.46,0,0,0-.26.07.58.58,0,0,0-.17.18c-.07.11-.09.29.07.35l.11,0v0a.42.42,0,0,0,0,.22.87.87,0,0,1,.07.17,1.3,1.3,0,0,0,.14.26.31.31,0,0,0,.29.1.92.92,0,0,0,.5-.23.65.65,0,0,0,.22-.37.41.41,0,0,0-.07-.3.87.87,0,0,0-.2-.23,1.6,1.6,0,0,0-.19-.11.8.8,0,0,0-.23-.1Z" style="fill:#1C48AC"></path><path d="M182.93,221.21a2.14,2.14,0,0,0-.64,1.22,1.82,1.82,0,0,0,.16.93.09.09,0,0,0,0,.11,2.46,2.46,0,0,0,.59.57,2.3,2.3,0,0,0,.7.29,3.14,3.14,0,0,0,1.43,0,2,2,0,0,0,.1-3.9A2.71,2.71,0,0,0,182.93,221.21Zm1.84-.24a1.47,1.47,0,0,1,.87.38,2,2,0,0,1,.59,1,1.07,1.07,0,0,1-.18.86l-.08.09h0l0,0-.09.08,0,0,0,0-.24.13h0l-.06,0-.14.05a2.65,2.65,0,0,1-1.23.08,3,3,0,0,1-.76-.26.16.16,0,0,0,0-.15,2,2,0,0,1-.38-1,.72.72,0,0,1,0-.19l0-.11s0,0,0,0v0a2,2,0,0,1,.1-.21l0,0h0l.08-.1a1.86,1.86,0,0,1,.67-.53A1.93,1.93,0,0,1,184.77,221Z" style="fill:#1C48AC"></path><path d="M185.83,220.24l0,0,0,0Z" style="fill:#1C48AC"></path><path d="M195.31,209.2a.44.44,0,0,0-.06.53l.33.49-.81.48a.35.35,0,0,0-.18.33.2.2,0,0,0,.27.13l1.07-.43a4.79,4.79,0,0,0,.46.55c.08.09.25,0,.31-.05a.26.26,0,0,0,.09-.3l-.23-.46.26-.13.3-.13a1.48,1.48,0,0,0,.36-.23c.22-.19.17-.7-.23-.62a3.25,3.25,0,0,0-.78.36l-.27.15-.42-.67C195.68,209,195.42,209.09,195.31,209.2Z" style="fill:#1C48AC"></path><path d="M177,208a.4.4,0,0,0-.06.52c.1.17.21.33.32.5l-.8.47a.32.32,0,0,0-.18.33.19.19,0,0,0,.26.14l1.07-.43a5.83,5.83,0,0,0,.46.55c.08.08.25,0,.31-.06a.24.24,0,0,0,.09-.29c-.07-.16-.15-.32-.23-.47l.27-.12.29-.14a1.23,1.23,0,0,0,.36-.23c.22-.19.17-.7-.23-.61a3,3,0,0,0-.77.35l-.27.15-.43-.66C177.32,207.78,177.07,207.83,177,208Z" style="fill:#1C48AC"></path><path d="M150,237.8a1.2,1.2,0,0,0,.51.11,1.93,1.93,0,0,0,1.33-.88,4,4,0,0,0,.57-2.28c0-.42,0-.83,0-1.25a4.17,4.17,0,0,0,2.43-2.5,4.85,4.85,0,0,0-2.4-5.69,3.71,3.71,0,0,0-1.5-.29.76.76,0,0,1,0-.11,4.11,4.11,0,0,0-1.81-2.43c-1.93-.8-2.52,2.44-2,3.46.14.29.63,0,.61-.24a4.56,4.56,0,0,1,.13-2.11c.23-.54.6-.71,1.13-.27a4.16,4.16,0,0,1,1.15,1.78,10.29,10.29,0,0,0-2.81.79,4.62,4.62,0,0,0-1.89,1.65,5,5,0,0,0-.4.88,3.16,3.16,0,0,0-.1,2.34,4.5,4.5,0,0,0,1.62,2.14,6.3,6.3,0,0,0,.84.48,1.09,1.09,0,0,1,.53.68c.3.77.61,1.53.91,2.3a3,3,0,0,0,.48.91A2,2,0,0,0,150,237.8Zm1.42-11.66a3.83,3.83,0,0,1,2.59,4.24,2.86,2.86,0,0,1-1.71,2.12c-.12-1.11-.31-2.22-.47-3.33s-.31-2-.57-3ZM145.92,231a2.18,2.18,0,0,1-.21-.47,3.13,3.13,0,0,1,1.28-3.19,5.55,5.55,0,0,1,3.4-1.29l.06.24c.27,1.1.36,2.22.53,3.34s.34,2.13.45,3.2a5.21,5.21,0,0,1-1.06.15,5.32,5.32,0,0,1-1.26-.1A5,5,0,0,1,145.92,231Zm5.59,2.81a1.79,1.79,0,0,0,0,.23,6.63,6.63,0,0,1-.16,2.13.92.92,0,0,1-.87.78,1,1,0,0,1-.78-.55,7.23,7.23,0,0,1-.68-1.29c-.09-.23-.17-.47-.24-.7s-.21-.39-.11-.55A5.73,5.73,0,0,0,151.51,233.79Z" style="fill:#1C48AC"></path><path d="M164.68,210.51l-.06,0a.32.32,0,0,0-.14,0h-.06a.47.47,0,0,0-.15.06h0a.41.41,0,0,0-.11.07h0l.1-.06a.8.8,0,0,0-.33.3.64.64,0,0,0-.08.19.22.22,0,0,0,0,.08.48.48,0,0,0,0,.12l0,.07a.14.14,0,0,0,.09.08.11.11,0,0,0,.08,0,.28.28,0,0,0,.13,0l.19,0,.07,0,.11-.06.1-.07,0,0a.24.24,0,0,0,.08-.09.56.56,0,0,0,0-.08h0a.17.17,0,0,0,0-.1h0v-.08h0v-.06a.33.33,0,0,0,0-.13v0h0A.6.6,0,0,0,164.68,210.51Z" style="fill:#1C48AC"></path><path d="M210.84,191.11c0-.15.08-.31.12-.46s.08-.4.11-.6,0-.13,0-.19a.69.69,0,0,0,0-.2.13.13,0,0,1,0-.08,1.21,1.21,0,0,0,0-.19c0-.13-.16-.2-.28-.18a.53.53,0,0,0-.38.28c-.05.11-.13.2-.17.31l-.06.23a2.38,2.38,0,0,0,0,.26l-.09.48c0,.18-.09.37-.11.56l0,.2v0l-.2.09-2.37,1c.05-.11.1-.22.14-.33v0l0,0,0-.1c0-.07.07-.13.1-.2a4,4,0,0,0,.21-.47.57.57,0,0,0,0-.29.31.31,0,0,0-.16-.21.38.38,0,0,0-.21,0s0,0-.09,0h0l0,0a.52.52,0,0,0-.17.12l-.09.09a2,2,0,0,0-.16.28c-.08.18-.15.36-.22.54a2.5,2.5,0,0,0-.15.38,2.4,2.4,0,0,0-.13.59c-.58.25-1.17.51-1.72.81l0-.07c.09-.15.18-.29.26-.45a2.78,2.78,0,0,0,.26-.75.24.24,0,0,0-.07-.21.37.37,0,0,0-.39,0,.56.56,0,0,0-.18.16s0,0,0,.08,0,.05,0,0a1.6,1.6,0,0,0-.11.19h0c0,.05,0,0,0,0a.27.27,0,0,0,0,.07c-.13.19-.22.4-.33.6a3.27,3.27,0,0,0-.52,1.42.14.14,0,0,0,.08.13h0a.3.3,0,0,0,.17.11,1.57,1.57,0,0,0,.57.12h.42q.42,0,.84.09l.27,0,.15,0a.63.63,0,0,0,.19,0,.58.58,0,0,0,.29-.09.59.59,0,0,0,.2-.09c.13-.1.28-.27.25-.44l-.16-.26a1.29,1.29,0,0,1-.17-.16l-.17-.08-.17,0a5.66,5.66,0,0,0-.81-.12h-.21c.52-.23,1-.49,1.51-.72h.06s0,0,0,0h.11l.28,0a4.19,4.19,0,0,1,.71.1c.22.06.45.08.67.14a1,1,0,0,0,.38.07s0,0,0,0h.21c.09,0,.23-.07.2-.16s-.08-.11-.12-.17a.32.32,0,0,0-.14-.12l-.37-.17A3.08,3.08,0,0,0,208,193h-.07l2-.92.18-.08a1.63,1.63,0,0,0,.48.09h.09s0,0,0,0l.2,0,.39.09c.22.06.45.05.68.09l.9.22a1.61,1.61,0,0,0,.43.07,2.54,2.54,0,0,0,.49-.05s.14-.07.11-.12a1,1,0,0,0-.31-.26,2.19,2.19,0,0,0-.44-.2l-.91-.37a3.76,3.76,0,0,0-.55-.23l-.17,0a45.54,45.54,0,0,0,4.09-2.17c.31-.18.23-.65-.16-.42a50.21,50.21,0,0,1-4.62,2.37Z" style="fill:#1C48AC"></path><path d="M211.49,219.68l.07-.06,0,0,0,0,.06,0,.13-.08.27-.17a6.19,6.19,0,0,0,.75.94c.17.16.51-.14.45-.31a6.22,6.22,0,0,0-.5-1l.12-.06a2.32,2.32,0,0,0,.54-.29.51.51,0,0,0,.17-.53.36.36,0,0,0-.39-.28,2,2,0,0,0-.62.26l-.29.16-.17-.27a1.72,1.72,0,0,0-.22-.33.35.35,0,0,0-.55.07c-.24.33,0,.66.25,1a2.17,2.17,0,0,0-.29.24l-.19.2c-.16.19-.36.53-.21.77a.14.14,0,0,0,.11,0A.71.71,0,0,0,211.49,219.68Z" style="fill:#1C48AC"></path><path d="M183.41,230.8l.08-.06,0,0,0,0,0,0,.13-.09.28-.16a5.1,5.1,0,0,0,.75.93c.17.17.5-.14.44-.3a4.92,4.92,0,0,0-.5-1l.13-.07a1.88,1.88,0,0,0,.54-.29.49.49,0,0,0,.16-.52.37.37,0,0,0-.39-.29,2.26,2.26,0,0,0-.62.26l-.29.16-.16-.26a2.37,2.37,0,0,0-.22-.33.35.35,0,0,0-.55.06c-.25.33,0,.67.25,1l-.3.25a1.8,1.8,0,0,0-.19.2c-.15.19-.36.52-.2.77a.13.13,0,0,0,.1,0A.78.78,0,0,0,183.41,230.8Z" style="fill:#1C48AC"></path><path d="M227.43,204.11c0-.16.08-.31.11-.47a3.84,3.84,0,0,0,.11-.59l0-.2a.67.67,0,0,0,0-.2.19.19,0,0,1,0-.07,1.34,1.34,0,0,1,0-.2c0-.12-.16-.19-.29-.17a.55.55,0,0,0-.37.27,3.24,3.24,0,0,0-.17.32l-.06.23a1.83,1.83,0,0,0-.06.25c0,.16,0,.32-.08.48s-.09.37-.12.56a1.2,1.2,0,0,1,0,.2v0l-.19.09-2.37,1c.05-.11.1-.23.14-.34l0,0,0,0a1,1,0,0,0,0-.1l.09-.2a2,2,0,0,0,.21-.47.48.48,0,0,0,0-.29.32.32,0,0,0-.16-.2.42.42,0,0,0-.22,0s0,0-.08,0h0l0,0a.57.57,0,0,0-.18.12l-.08.09a1.18,1.18,0,0,0-.16.29c-.08.17-.16.35-.23.53l-.15.39a3.75,3.75,0,0,0-.13.58c-.58.26-1.17.51-1.72.81l0-.06.26-.45a2.9,2.9,0,0,0,.26-.75c0-.06,0-.18-.08-.21a.37.37,0,0,0-.39,0,.46.46,0,0,0-.17.17.25.25,0,0,0,0,.07s0,.06,0,0a1.08,1.08,0,0,0-.11.18h0v0h0s0,.06-.05.06c-.12.19-.21.41-.32.61a3.22,3.22,0,0,0-.52,1.42.16.16,0,0,0,.08.13h0a.47.47,0,0,0,.18.12,1.74,1.74,0,0,0,.56.11l.42,0a8,8,0,0,1,.84.08l.28.05.15,0,.19,0a.71.71,0,0,0,.28-.09l.21-.09c.13-.1.28-.27.25-.44s-.11-.18-.16-.27a.93.93,0,0,1-.18-.16.8.8,0,0,0-.16-.08l-.17,0a7.72,7.72,0,0,0-.82-.12h-.2c.52-.23,1-.48,1.51-.71h.15a1.37,1.37,0,0,1,.28,0,2.83,2.83,0,0,1,.71.1c.22,0,.45.07.67.13a1,1,0,0,0,.38.08s0,0,0,0h.2c.09,0,.24-.06.21-.16a1.09,1.09,0,0,0-.13-.17.38.38,0,0,0-.13-.12l-.37-.17a2.76,2.76,0,0,0-.73-.21h-.08l2-.91.18-.08a1.51,1.51,0,0,0,.48.08h.09s0,0,0,0l.19,0c.14,0,.27.06.4.09s.45,0,.67.09l.9.21a1.7,1.7,0,0,0,.44.08,2.63,2.63,0,0,0,.49-.06s.13-.06.1-.11a1.12,1.12,0,0,0-.3-.27,2.66,2.66,0,0,0-.45-.2l-.9-.37a3.83,3.83,0,0,0-.56-.22.9.9,0,0,0-.16,0,45.46,45.46,0,0,0,4.09-2.16c.31-.19.22-.66-.17-.43a46.71,46.71,0,0,1-4.62,2.37Z" style="fill:#1C48AC"></path><path d="M207,185.2c0-.15.07-.31.11-.46s.08-.4.11-.6,0-.13,0-.19a.69.69,0,0,0,0-.2.13.13,0,0,1,0-.08,1.21,1.21,0,0,0,0-.19c0-.13-.16-.2-.28-.18a.49.49,0,0,0-.37.28,2.48,2.48,0,0,0-.18.31l-.06.23a2.38,2.38,0,0,0-.05.26l-.09.48c0,.18-.09.37-.11.56l0,.2v0l-.2.08c-.78.35-1.58.69-2.37,1l.15-.33,0,0,0,0,0-.1.1-.2a4.84,4.84,0,0,0,.21-.47.57.57,0,0,0,0-.29.31.31,0,0,0-.16-.21.38.38,0,0,0-.21,0h-.12l0,0a.66.66,0,0,0-.17.12l-.09.09a1.28,1.28,0,0,0-.16.28c-.08.18-.15.36-.22.54a2.5,2.5,0,0,0-.15.38,2.4,2.4,0,0,0-.13.59c-.58.25-1.17.51-1.72.81l0-.07c.09-.15.18-.3.26-.45a2.78,2.78,0,0,0,.26-.75.24.24,0,0,0-.07-.21.37.37,0,0,0-.39,0,.52.52,0,0,0-.17.16s0,.05,0,.08,0,.05,0,0a.67.67,0,0,0-.11.18h0v0s0,0,0,0a.57.57,0,0,0,0,.07c-.13.19-.22.4-.33.6a3.27,3.27,0,0,0-.52,1.42.14.14,0,0,0,.08.13h0a.3.3,0,0,0,.17.11,1.81,1.81,0,0,0,.57.12h.42q.42,0,.84.09l.27,0,.15,0,.19,0a.58.58,0,0,0,.29-.09.52.52,0,0,0,.2-.09c.13-.1.28-.27.25-.44l-.16-.26a.91.91,0,0,1-.17-.17l-.17-.07-.17-.05a7.5,7.5,0,0,0-.81-.11h-.2c.51-.23,1-.49,1.51-.72h.14l.28,0a4.19,4.19,0,0,1,.71.1c.22.06.45.08.67.14a1,1,0,0,0,.38.07s0,0,0,0h.21c.09,0,.23-.07.2-.16a.52.52,0,0,0-.12-.17.32.32,0,0,0-.14-.12,2.48,2.48,0,0,0-.37-.17,3.08,3.08,0,0,0-.73-.22h-.07l2-.92.18-.08a1.63,1.63,0,0,0,.49.09h.11l.2,0,.39.09c.22.05.45,0,.68.09l.9.22a1.61,1.61,0,0,0,.43.07,1.93,1.93,0,0,0,.49-.06c.05,0,.14-.06.11-.11a1,1,0,0,0-.31-.26,2.19,2.19,0,0,0-.44-.2l-.91-.37a3.76,3.76,0,0,0-.55-.23l-.17,0a45.54,45.54,0,0,0,4.09-2.17c.31-.18.23-.66-.16-.42-1.48.87-3,1.64-4.62,2.37A0,0,0,0,1,207,185.2Z" style="fill:#1C48AC"></path><path d="M233.8,166.71l-1.22.6c1.81,3.17,3.59,6.36,5.29,9.59,2.85,5.43,6.84,10.88,7.56,16.9.25,2.08.38,6.18-2.74,6.52-2.32.25-4.83-1.3-6.59-2.52-2.26-1.57-4-3.58-6.35-5.08-2.66-1.69-5.61-3-8.13-4.88-2.86-2.13-5.07-5.15-7.18-7.85-.7-.9-1.39-1.81-2.05-2.76l-1.19.59c.57.85,1.16,1.69,1.78,2.52a50.34,50.34,0,0,0,6.61,7.73c2.53,2.24,5.67,3.71,8.6,5.45a23.41,23.41,0,0,1,4.11,3,26.74,26.74,0,0,0,2.92,2.46c2,1.4,4.48,2.89,7.07,2.9s4-2,4.33-4.12c1.16-6.44-2.63-12.61-5.82-18.27C238.41,175.27,236.17,171,233.8,166.71Z" style="fill:#1C48AC"></path><path d="M240.17,207.13c0-.16.08-.31.11-.47a5.59,5.59,0,0,0,.11-.59,1.36,1.36,0,0,0,0-.2.45.45,0,0,0,0-.2.07.07,0,0,1,0-.07,1.34,1.34,0,0,1,0-.2c0-.12-.16-.19-.29-.17a.53.53,0,0,0-.37.27,2,2,0,0,0-.17.32,1.55,1.55,0,0,0-.07.23,2.21,2.21,0,0,0-.05.25c0,.16-.05.32-.08.48s-.09.37-.12.56l0,.2v0l-.19.09-2.38,1,.15-.34,0,0,0-.05a.93.93,0,0,0,.05-.1l.09-.2a2,2,0,0,0,.21-.47.48.48,0,0,0,0-.29.33.33,0,0,0-.17-.2.38.38,0,0,0-.21,0s0,0-.08,0h0l0,0a.57.57,0,0,0-.18.12l-.08.09a1.18,1.18,0,0,0-.16.29c-.08.17-.16.35-.23.53s-.11.26-.15.39a3.75,3.75,0,0,0-.13.58c-.58.26-1.17.51-1.72.81l0-.06c.08-.15.17-.3.26-.45a2.55,2.55,0,0,0,.25-.75.21.21,0,0,0-.07-.21.37.37,0,0,0-.39,0,.46.46,0,0,0-.17.17.25.25,0,0,0,0,.07c0,.05,0,.06,0,0a.67.67,0,0,0-.11.18h0v0s0,0,0,0l0,.06c-.12.19-.22.41-.33.61a3.21,3.21,0,0,0-.51,1.42.14.14,0,0,0,.07.13h0a.43.43,0,0,0,.17.12,1.8,1.8,0,0,0,.57.11l.42,0a8,8,0,0,1,.84.08l.28.05.15,0,.18,0a.7.7,0,0,0,.29-.09.72.72,0,0,0,.2-.09c.13-.1.29-.27.25-.44l-.15-.27a.93.93,0,0,1-.18-.16l-.16-.08-.18,0a7.18,7.18,0,0,0-.81-.12h-.2l1.51-.71h.14a1.52,1.52,0,0,1,.29,0,3.38,3.38,0,0,1,.71.1c.22.05.45.07.67.13a.83.83,0,0,0,.37.08h.21c.09,0,.24-.06.2-.16s-.08-.11-.12-.17a.5.5,0,0,0-.13-.12l-.37-.17a2.72,2.72,0,0,0-.74-.21h-.07l2-.91.18-.08a1.62,1.62,0,0,0,.49.08H240l.2,0,.39.09c.22.05.46,0,.68.09l.9.21a1.63,1.63,0,0,0,.44.08,2.73,2.73,0,0,0,.49-.06s.13-.06.1-.11a1.12,1.12,0,0,0-.3-.27,3.62,3.62,0,0,0-.45-.2l-.91-.37a3.71,3.71,0,0,0-.55-.22.9.9,0,0,0-.16,0c1.4-.66,2.77-1.37,4.09-2.16.3-.19.22-.66-.17-.43a47.84,47.84,0,0,1-4.62,2.37A0,0,0,0,1,240.17,207.13Z" style="fill:#1C48AC"></path><path d="M200.57,187l0,0,0,0Z" style="fill:#1C48AC"></path><path d="M223.15,198.83l.12-.47c0-.19.08-.39.11-.59a1.36,1.36,0,0,1,0-.2.67.67,0,0,0,0-.2.19.19,0,0,1,0-.07c0-.07,0-.13,0-.2s-.16-.19-.29-.17a.55.55,0,0,0-.37.27,3.24,3.24,0,0,0-.17.32l-.06.23a1.83,1.83,0,0,0-.06.25c0,.16,0,.32-.08.48a5.54,5.54,0,0,0-.11.56l0,.2a.08.08,0,0,0,0,0l-.19.09-2.37,1c.05-.11.1-.23.14-.34l0,0,0,0a1,1,0,0,0,0-.1l.1-.2a2.46,2.46,0,0,0,.2-.47.48.48,0,0,0,0-.29.29.29,0,0,0-.16-.2.42.42,0,0,0-.22,0s0,0-.08,0h0l0,0a.57.57,0,0,0-.18.12l-.08.09a1.64,1.64,0,0,0-.16.29c-.08.17-.15.35-.23.53l-.15.39a3.75,3.75,0,0,0-.13.58c-.58.26-1.16.51-1.71.81l0-.06c.09-.15.18-.3.26-.45a2.9,2.9,0,0,0,.26-.75c0-.06,0-.18-.08-.21a.37.37,0,0,0-.39,0,.46.46,0,0,0-.17.17.11.11,0,0,0,0,.07s0,.06,0,0-.07.12-.11.18h0v0h0s0,.06-.05.06c-.12.19-.21.41-.32.61a3.22,3.22,0,0,0-.52,1.42.14.14,0,0,0,.08.13h0a.37.37,0,0,0,.17.12,1.8,1.8,0,0,0,.57.11l.41,0a7.89,7.89,0,0,1,.85.08l.27.05.15,0,.19,0a.66.66,0,0,0,.28-.09l.21-.09c.13-.1.28-.27.25-.44l-.16-.27-.18-.16a.8.8,0,0,0-.16-.08l-.17,0a7.72,7.72,0,0,0-.82-.12h-.2c.52-.23,1-.48,1.51-.71h.15a1.37,1.37,0,0,1,.28,0,2.83,2.83,0,0,1,.71.1c.22,0,.45.07.67.13a1,1,0,0,0,.38.08s0,0,0,0h.2c.09,0,.24-.06.21-.16s-.08-.11-.12-.17a.55.55,0,0,0-.14-.12L221,201a2.66,2.66,0,0,0-.73-.21h-.07l2-.91.18-.08a2,2,0,0,0,.48.08H223s0,0,0,0l.2,0c.13,0,.26.06.39.09s.45,0,.67.09.61.14.91.21a1.56,1.56,0,0,0,.43.08,2.63,2.63,0,0,0,.49-.06s.13-.06.1-.11a1.12,1.12,0,0,0-.3-.27,2.66,2.66,0,0,0-.45-.2l-.9-.37a3.83,3.83,0,0,0-.56-.22.76.76,0,0,0-.16,0,45.46,45.46,0,0,0,4.09-2.16c.31-.19.22-.66-.16-.43a46.87,46.87,0,0,1-4.63,2.37Z" style="fill:#1C48AC"></path><path d="M235.37,216c-.78-.18-1.53-.36-2.2-.55a28.88,28.88,0,0,0-6.86-1,39.51,39.51,0,0,1-7.73-1c-.48-.12-.94-.21-1.4-.3a8.92,8.92,0,0,0,.87-.87,1.77,1.77,0,0,0,.15-1.75,4.32,4.32,0,0,0-3.12-2.29c-.64-.06-1.25.2-1.87.16s-.8-.66-1.14-1-.55-.91-.94-1.29a1.33,1.33,0,0,0-1.75-.13,26.46,26.46,0,0,0,1.1-3,.67.67,0,0,0,.05-.19,1.21,1.21,0,0,0,.05-.18,9.59,9.59,0,0,1,.46-1.75,3.8,3.8,0,0,1,1.56-1.54,5.21,5.21,0,0,0,2.14-2.15c.9-1.91.5-4.07,1.46-6,.2-.41-.25-1-.7-.57-1.42,1.3-1.08,3.42-1.44,5.09a3.76,3.76,0,0,1-1.88,2.48A5,5,0,0,0,210,200.6a14.64,14.64,0,0,0-.49,2,22.61,22.61,0,0,1-7.28-.28,52.86,52.86,0,0,0-7.29-1.24c-1.34-.06-2.7,0-4.06.05a1.91,1.91,0,0,0,.43-2.44,4.74,4.74,0,0,0-2.11-1.48l-1.26-.57a5.57,5.57,0,0,1-.89-.42c-1-.73-1.5-2-2.17-2.93a.48.48,0,0,0-.39-.16,2.27,2.27,0,0,1-.58,0c.27-.72.48-1.46.68-2.2l-1.34.66a14.81,14.81,0,0,1-.88,2.29c-1,2.13-2.64,4-3.15,6.29a.64.64,0,0,0,.28.7c4.82,2.64,10.17,1.19,15.38,1.47a77.24,77.24,0,0,1,8,1.34,15.33,15.33,0,0,0,6.29.07c-.17.47-.34.93-.5,1.4a22.11,22.11,0,0,0-1.25,4.64c-.13,1.07-.27,2.66.87,3.42,1.33.89,3.64.51,5.16.51a13.77,13.77,0,0,1,2.71.28c0,.23.24.2.43.08,1.37.28,2.74.66,4.12.87,2.6.4,5.28.21,7.9.41a33.21,33.21,0,0,1,5.8,1.13Zm-54.91-16.12c.61-2,2.06-3.69,3-5.58h0c.26,0,.5.06.75.07A13.88,13.88,0,0,0,186.1,197a6,6,0,0,0,1.8,1A11.28,11.28,0,0,1,190,199c.73.54.54,1.1.12,1.75a.48.48,0,0,0-.07.34C186.78,201.27,183.49,201.36,180.46,199.86ZM212.2,212.7c-1.49,0-3.66.19-3.89-1.53a9.54,9.54,0,0,1,.9-4.74c.29.23.59.14.92.26a1.16,1.16,0,0,1,.53.54c.28.49.68.89,1,1.36a1.63,1.63,0,0,0,1.08.88,6.36,6.36,0,0,0,1.57-.12,3.37,3.37,0,0,1,3,1.74c.29.57-.06.9-.46,1.31a2.62,2.62,0,0,0-.48.64A25.17,25.17,0,0,0,212.2,212.7Z" style="fill:#1C48AC"></path><path d="M171.4,203.12h.21a.48.48,0,0,0,.21-.07.79.79,0,0,0,.19-.17.65.65,0,0,0,.09-.23.38.38,0,0,0,0-.15.31.31,0,0,0-.06-.13.25.25,0,0,0-.17-.1.37.37,0,0,0-.21,0,.57.57,0,0,0-.21.13l0,0a1.29,1.29,0,0,1-.17.16l-.06.08-.05.09,0,.09a.22.22,0,0,0,0,.12.16.16,0,0,0,0,.07.18.18,0,0,0,.07.05.11.11,0,0,0,.08,0,.2.2,0,0,0,.13,0Z" style="fill:#1C48AC"></path><path d="M185.85,234.88a.47.47,0,0,0-.17,0,.48.48,0,0,0-.16.08h0a.34.34,0,0,0-.17.14.17.17,0,0,0,0,.1s0,0,0,0l0,0a.16.16,0,0,0-.05.11.12.12,0,0,0,0,.1.15.15,0,0,0,0,.09l.06,0a.26.26,0,0,0,.15,0h.09a.62.62,0,0,0,.16-.1.93.93,0,0,0,.15-.13l0,0,.07-.11h0l0-.08v0a.19.19,0,0,0,0-.08.21.21,0,0,0-.21-.19Z" style="fill:#1C48AC"></path><path d="M220.07,176.48c.66,1.58,2.17,2.77,2.8,4.38a6.49,6.49,0,0,0,1.09,1.95,17.08,17.08,0,0,1,1.56,1.86c.08.13.41,0,.35-.13a12.08,12.08,0,0,0-1.52-2.14,14.75,14.75,0,0,1-1.25-2.71,11.5,11.5,0,0,0-1.27-1.88,10.36,10.36,0,0,1-1.43-2.6,3.36,3.36,0,0,0-1.11-1.37l-.69.34.11.08A4.43,4.43,0,0,1,220.07,176.48Z" style="fill:#1C48AC"></path><path d="M232.73,178.21a35.32,35.32,0,0,1-2.44-3.45,14.69,14.69,0,0,1-1.43-2.36,17.37,17.37,0,0,0-.94-2.06,5.52,5.52,0,0,0-.43-.53l-.92.46a4.58,4.58,0,0,1,.93,1.25,23.88,23.88,0,0,0,2.25,3.95,10.29,10.29,0,0,0,2.54,3C232.46,178.62,232.89,178.38,232.73,178.21Z" style="fill:#1C48AC"></path><path d="M233.15,190c.07.16.44,0,.42-.15-.34-2.31-3.18-3.52-3.46-5.88-.22-1.81-.13-3.24-1.68-4.67-.8-.73-1.74-1.32-2.54-2a8.56,8.56,0,0,1-1.85-2.83c-.32-.68-.68-1.52-1.15-2.31l-.59.3c.65,1,1.09,2.11,1.64,3.16.93,1.79,2.45,2.76,3.95,4.14a4.16,4.16,0,0,1,1.47,2.61c.1.72,0,1.44.17,2.15C229.92,186.63,232.32,187.9,233.15,190Z" style="fill:#1C48AC"></path></g><path d="M160.64,220.17l10.68-5.26a1.22,1.22,0,0,1,1.53.4l6.27,9.67a2.24,2.24,0,0,1,.21,1.8l-.05.16,0,.05a2.59,2.59,0,0,1-.46.69,3.22,3.22,0,0,1-.84.67l-11.65,5.72-6.83-10.55a2.17,2.17,0,0,1-.3-1,1.74,1.74,0,0,1,.09-.8l.06-.15A2.93,2.93,0,0,1,160.64,220.17Z" style="fill:#37474f"></path><path d="M159.17,222.52,170.4,217a1.41,1.41,0,0,1,1.77.46l6.09,9.41a1.05,1.05,0,0,1-.46,1.55l-11.5,5.65-6.83-10.55A2.17,2.17,0,0,1,159.17,222.52Z" style="fill:#455a64"></path><path d="M168.85,247c-.24,1.82,1.7,4.56,3.35,5.36s3.73.48,6.93-1.09,4.68-2.85,4.66-4.61-2-4.47-3.53-5.26a14.82,14.82,0,0,0-6.64,1.36A12.26,12.26,0,0,0,168.85,247Z" style="fill:#37474f"></path><path d="M173.62,242.73c3.2-1.57,6.31-2.06,6.94-1.09s-1.46,3-4.66,4.61-6.31,2.06-6.94,1.09S170.42,244.31,173.62,242.73Z" style="fill:#455a64"></path><path d="M162.6,228.36l10.87,16.77c.33.51,2.94-.77,2.6-1.28l-5.49-8.48c-3.21-5,2.44-6.73-.21-10.82s-7.32-.8-10.52-5.76l-5.5-8.48-2.61,1.29Z" style="fill:#1C48AC"></path><path d="M165.25,224.54a2.68,2.68,0,0,1,3.35.88,2,2,0,0,1-.88,2.94,2.67,2.67,0,0,1-3.34-.87A2,2,0,0,1,165.25,224.54Z" style="fill:#37474f"></path><path d="M144.72,209.71c-.25,1.82,1.69,4.57,3.34,5.36s3.73.48,6.93-1.09,4.69-2.85,4.66-4.61-2-4.47-3.53-5.25a14.63,14.63,0,0,0-6.63,1.36A12.2,12.2,0,0,0,144.72,209.71Z" style="fill:#37474f"></path><path d="M149.49,205.48c3.2-1.58,6.3-2.07,6.93-1.1s-1.45,3-4.66,4.61-6.3,2.06-6.93,1.09S146.29,207.05,149.49,205.48Z" style="fill:#455a64"></path><path d="M237.69,182.29l10.68-5.24a1.2,1.2,0,0,1,1.53.4l6.22,9.6a2.46,2.46,0,0,1,.26,1.87l-.05.15,0,.05a2.59,2.59,0,0,1-.46.69,3,3,0,0,1-.84.67l-10.53,5.17a1.4,1.4,0,0,1-1.77-.46l-6.18-9.54a2.06,2.06,0,0,1-.3-1,1.74,1.74,0,0,1,.09-.8l.06-.15A3.09,3.09,0,0,1,237.69,182.29Z" style="fill:#37474f"></path><path d="M237.07,184.23l10.39-5.1a1.4,1.4,0,0,1,1.76.46l6.09,9.41a1.05,1.05,0,0,1-.46,1.55l-10.38,5.1a1.4,1.4,0,0,1-1.76-.46l-6.1-9.41A1.06,1.06,0,0,1,237.07,184.23Z" style="fill:#455a64"></path><path d="M269,197.76a6.65,6.65,0,0,1,3.54,5.26c-.07,1.65-1.46,3-4.66,4.61s-5.22,2-6.94,1.09a7.63,7.63,0,0,1-3.34-5.34,12.16,12.16,0,0,1,4.77-4.25A14.88,14.88,0,0,1,269,197.76Z" style="fill:#37474f"></path><path d="M262.34,199.13c-3.2,1.57-5.29,3.64-4.66,4.61s3.74.48,6.94-1.1,5.29-3.63,4.66-4.6S265.54,197.56,262.34,199.13Z" style="fill:#455a64"></path><path d="M253.91,183.48l10.87,16.77c.33.51-2.28,1.79-2.61,1.28,0,0-2.29-3.52-5.5-8.48s-7.87-1.66-10.52-5.75,3-5.87-.21-10.82l-5.5-8.48,2.61-1.28Z" style="fill:#1C48AC"></path><path d="M248.8,183.48a2,2,0,0,0-.88,3,2.68,2.68,0,0,0,3.35.87,2,2,0,0,0,.87-2.94A2.66,2.66,0,0,0,248.8,183.48Z" style="fill:#37474f"></path><path d="M244.83,160.51a6.65,6.65,0,0,1,3.54,5.26c-.07,1.64-1.45,3-4.66,4.6s-5.21,2-6.93,1.1a7.62,7.62,0,0,1-3.34-5.35,12.15,12.15,0,0,1,4.77-4.25A14.76,14.76,0,0,1,244.83,160.51Z" style="fill:#37474f"></path><path d="M238.21,161.87c-3.21,1.58-5.29,3.64-4.66,4.61s3.73.48,6.93-1.09,5.29-3.64,4.66-4.61S241.41,160.3,238.21,161.87Z" style="fill:#455a64"></path></g><path d="M236.45,111.1c-10.88-.58-15-.13-27.39,11.85-12.09,11.68-30.23,28.65-32.13,34.66s4.86,45.35,8.2,54c3.21,8.33,6.14,19.57,13.1,22.81,5.32,2.48,12.25-.62,15.17-3.19a9.37,9.37,0,0,0,3.41-6.11l-3.48,1.71c-3-2-5.71-6.27-6.65-11,1.34.37,2.39,1.41,3.66,2a11.1,11.1,0,0,0,4.1.71c1,0,2.25,0,2.71-.94a1.82,1.82,0,0,0-.27-1.83,5.79,5.79,0,0,0-1.45-1.29,24.08,24.08,0,0,1-6.38-6.7c-1.19-1.83-5.05-4.37-6.65-5.88-1.17-1.12-3.76-2.27-4.11-4s-.7-33.54-.7-33.54l31.66-29.42Z" style="fill:#ffa8a7"></path><path d="M236.45,111.1s2.06,17.84-6.51,25.89-32.35,27.33-32.35,27.33-18.61-2.09-21.05-4c0,0-1.9-1.85,2.53-8.88s25.51-27.28,30.85-32.56S223.31,102.5,236.45,111.1Z" style="fill:#1C48AC"></path><path d="M236.45,111.1s2.06,17.84-6.51,25.89-32.35,27.33-32.35,27.33-18.61-2.09-21.05-4c0,0-1.9-1.85,2.53-8.88s25.51-27.28,30.85-32.56S223.31,102.5,236.45,111.1Z" style="opacity:0.30000000000000004"></path><path d="M176.54,160.31s16.28-4,21.05,4l.2,15.16s-10.86-4.36-19.33.18c0,0-.65-3.3-1.39-8.42A72.74,72.74,0,0,1,176.54,160.31Z" style="fill:#37474f"></path><g id="freepik--Hood--inject-156"><path d="M251.19,130.83c2.5-11-2.46-15.69-7-19-4.27-3.12-8.8-4.14-21-8.09S210.93,89,220.56,84.88s26.3-3.15,30.9,1.35c0,0-2.88-6.65-17.28-7.56S212,82,206.92,88.55s-3.84,16.81,7.74,21.19,20.65,4.55,28.45,8.15C249.82,121,250.77,126.7,251.19,130.83Z" style="fill:#1C48AC"></path><path d="M263.56,141.06c-3.12.31-6,1-9.16.2a9.32,9.32,0,0,1-6.34-4.74c-1.67-3.46-.72-7.24.58-10.64a19.41,19.41,0,0,0,1.67-5.9,11.55,11.55,0,0,0-1.56-6c-.24-.46-.83-.43-.72.17a15.16,15.16,0,0,1,.32,6.25A40.33,40.33,0,0,1,246.4,126a15.1,15.1,0,0,0-1,8.94c1.14,4.86,5.6,7.66,10.3,8.33,2.59.37,6.14.38,8.4-1.1C264.58,141.82,264,141,263.56,141.06Z" style="fill:#37474f"></path><path d="M294.34,133.36a10.69,10.69,0,0,1-7.95-3.74c-2.33-2.7-3.52-6-4.52-9.32-.93-3.13-1.72-6.31-3.84-8.88a19.83,19.83,0,0,0-8.74-6.11c-.75-.25-.55.82-.21,1.1,2.53,2.06,5.35,3.57,7.36,6.23,2.2,2.93,2.83,6.71,4,10.12,2.14,6.42,6.86,12.86,14.37,12C295.63,134.61,295,133.39,294.34,133.36Z" style="fill:#37474f"></path></g><path d="M244,52.74s-4.9.55-6.79,4.18c-1.64,3.16-1.28,10.89.56,19.37s3.67,13.59,4.82,15.95a6.47,6.47,0,0,0,3.65,3.09l0-10-.17-7s4.63-6,5.26-11c.8-6.41-.48-9.08-.48-9.08Z" style="fill:#37474f"></path><path d="M250.24,64.23A18.66,18.66,0,1,0,269.34,46,18.66,18.66,0,0,0,250.24,64.23Z" style="fill:#37474f"></path><path d="M246.36,77.26c-1.71,1.41-3-2.39-4.35-3.9s-5.92-3.63-8.33,1.15,1.8,11.68,5.19,13.37c5,2.47,7.37-2.55,7.37-2.55l-.09,23.19h0c8.5,6.43,20.09,2.52,20.33-.8l.15-6.84s5.62,1,8.39.63c4.6-.6,7.57-4.15,9.08-9.08,2.42-7.92,2.21-19.9-.43-35.47-5-4.11-21.87-5.18-32.82,1.36C251.27,72.08,248.08,75.85,246.36,77.26Z" style="fill:#ffa8a7"></path><path d="M287.5,44.82a.86.86,0,0,0-.65-.54,1.1,1.1,0,0,0-.64.26,29.78,29.78,0,0,1-4.15,2.64,14.71,14.71,0,0,0,.22-5.57c-.17-1.14-.42-3.76-1.81-4.08-.83-.19-1.58.49-2.21,1-5.75,5.09-13,2.47-19.75,2.5-5.65,0-12.53,2.14-15.22,7.56-1.24,2.48-1.51,5.12.75,6.92a15.8,15.8,0,0,0,6.81,2.76c11.19,2.26,26.23,6.52,34.83-3.74a9.77,9.77,0,0,0,2.4-5.12,8.29,8.29,0,0,0-.55-4.58Z" style="fill:#1C48AC"></path><path d="M287.5,44.82a.86.86,0,0,0-.65-.54,1.1,1.1,0,0,0-.64.26,29.78,29.78,0,0,1-4.15,2.64,14.71,14.71,0,0,0,.22-5.57c-.17-1.14-.42-3.76-1.81-4.08-.83-.19-1.58.49-2.21,1-5.75,5.09-13,2.47-19.75,2.5-5.65,0-12.53,2.14-15.22,7.56-1.24,2.48-1.51,5.12.75,6.92a15.8,15.8,0,0,0,6.81,2.76c11.19,2.26,26.23,6.52,34.83-3.74a9.77,9.77,0,0,0,2.4-5.12,8.29,8.29,0,0,0-.55-4.58Z" style="opacity:0.2"></path><path d="M266.63,100.88s-10.19-2.31-13.72-4.3a11.71,11.71,0,0,1-4.83-5,16.21,16.21,0,0,0,2.67,5.84c2.54,3.41,15.81,6.19,15.81,6.19Z" style="fill:#f28f8f"></path><path d="M264.66,75.29a2.05,2.05,0,1,1-2-2.18A2.09,2.09,0,0,1,264.66,75.29Z" style="fill:#263238"></path><path d="M262.67,67.5l-4.44,2.31a2.63,2.63,0,0,1,1.1-3.47A2.45,2.45,0,0,1,262.67,67.5Z" style="fill:#263238"></path><path d="M263.27,86.3l10.37,4.17a5.49,5.49,0,0,1-7.19,3.3A5.85,5.85,0,0,1,263.27,86.3Z" style="fill:#b16668"></path><path d="M283.09,69.69l-3.92-3.18a2.43,2.43,0,0,1,3.49-.45A2.65,2.65,0,0,1,283.09,69.69Z" style="fill:#263238"></path><path d="M281.73,75.11a2.05,2.05,0,1,1-2-2.18A2.09,2.09,0,0,1,281.73,75.11Z" style="fill:#263238"></path><polygon points="271.33 72.92 271.71 85.27 278.2 83.23 271.33 72.92" style="fill:#f28f8f"></polygon><path d="M285.68,54.58a9.77,9.77,0,0,0,2.4-5.12,8.29,8.29,0,0,0-.55-4.58c1.2,3.17.54,8.18-6.72,11.15s-16.3,1.11-21.22.57a15.33,15.33,0,0,0-8.74,1.72C262,60.58,277.08,64.84,285.68,54.58Z" style="opacity:0.2"></path><path d="M243.73,84.36a2.36,2.36,0,1,1-2.48-2.24A2.36,2.36,0,0,1,243.73,84.36Z" style="fill:#263238"></path><path d="M266.45,93.77a5.37,5.37,0,0,0,3.3.23,4.51,4.51,0,0,0-4.62-3.46,4.4,4.4,0,0,0-1.63.41A5.58,5.58,0,0,0,266.45,93.77Z" style="fill:#f28f8f"></path></g></g></svg>
